G04*
G04 #@! TF.GenerationSoftware,Altium Limited,Altium Designer,22.7.1 (60)*
G04*
G04 Layer_Color=65535*
%FSLAX25Y25*%
%MOIN*%
G70*
G04*
G04 #@! TF.SameCoordinates,E8483943-05C6-4080-870F-1A5D9DAB6378*
G04*
G04*
G04 #@! TF.FilePolarity,Positive*
G04*
G01*
G75*
%ADD10C,0.01000*%
%ADD11C,0.00500*%
%ADD12C,0.00100*%
%ADD13C,0.00050*%
G36*
X240988Y52724D02*
X241051Y52718D01*
X241113Y52711D01*
X241189Y52697D01*
X241273Y52683D01*
X241439Y52634D01*
X241620Y52565D01*
X241703Y52523D01*
X241786Y52475D01*
X241870Y52412D01*
X241939Y52343D01*
X241946Y52336D01*
X241953Y52322D01*
X241974Y52301D01*
X241995Y52273D01*
X242029Y52232D01*
X242057Y52183D01*
X242092Y52121D01*
X242126Y52051D01*
X242161Y51975D01*
X242196Y51892D01*
X242230Y51795D01*
X242258Y51691D01*
X242279Y51573D01*
X242300Y51448D01*
X242307Y51316D01*
X242314Y51170D01*
Y47984D01*
X241529D01*
Y50906D01*
Y50913D01*
Y50927D01*
Y50955D01*
Y50983D01*
X241523Y51066D01*
Y51170D01*
X241509Y51281D01*
X241495Y51392D01*
X241481Y51496D01*
X241453Y51586D01*
Y51593D01*
X241439Y51621D01*
X241419Y51656D01*
X241391Y51704D01*
X241349Y51760D01*
X241307Y51815D01*
X241245Y51871D01*
X241176Y51920D01*
X241169Y51926D01*
X241141Y51940D01*
X241099Y51961D01*
X241044Y51989D01*
X240974Y52010D01*
X240891Y52030D01*
X240801Y52044D01*
X240704Y52051D01*
X240655D01*
X240620Y52044D01*
X240579D01*
X240530Y52038D01*
X240419Y52010D01*
X240287Y51975D01*
X240148Y51912D01*
X240017Y51836D01*
X239947Y51781D01*
X239885Y51725D01*
Y51718D01*
X239871Y51711D01*
X239857Y51691D01*
X239836Y51663D01*
X239808Y51628D01*
X239781Y51586D01*
X239753Y51531D01*
X239725Y51475D01*
X239690Y51406D01*
X239663Y51330D01*
X239635Y51239D01*
X239607Y51149D01*
X239586Y51045D01*
X239572Y50927D01*
X239565Y50809D01*
X239559Y50677D01*
Y47984D01*
X238774D01*
Y50997D01*
Y51003D01*
Y51017D01*
Y51045D01*
Y51087D01*
X238767Y51128D01*
Y51177D01*
X238754Y51295D01*
X238726Y51420D01*
X238691Y51552D01*
X238643Y51677D01*
X238580Y51788D01*
X238573Y51802D01*
X238545Y51829D01*
X238497Y51871D01*
X238434Y51920D01*
X238344Y51968D01*
X238240Y52010D01*
X238108Y52038D01*
X237955Y52051D01*
X237900D01*
X237837Y52044D01*
X237754Y52030D01*
X237657Y52010D01*
X237553Y51975D01*
X237449Y51933D01*
X237338Y51871D01*
X237324Y51864D01*
X237289Y51836D01*
X237241Y51802D01*
X237185Y51739D01*
X237116Y51670D01*
X237046Y51579D01*
X236984Y51475D01*
X236928Y51357D01*
Y51350D01*
X236921Y51344D01*
X236914Y51323D01*
X236908Y51295D01*
X236900Y51260D01*
X236887Y51218D01*
X236880Y51170D01*
X236866Y51114D01*
X236852Y51045D01*
X236845Y50976D01*
X236831Y50899D01*
X236824Y50809D01*
X236817Y50719D01*
X236810Y50615D01*
X236803Y50511D01*
Y50393D01*
Y47984D01*
X236019D01*
Y52627D01*
X236720D01*
Y51982D01*
X236734Y51989D01*
X236762Y52030D01*
X236810Y52093D01*
X236880Y52169D01*
X236963Y52259D01*
X237060Y52350D01*
X237171Y52440D01*
X237303Y52523D01*
X237310D01*
X237317Y52530D01*
X237338Y52544D01*
X237366Y52558D01*
X237400Y52572D01*
X237442Y52593D01*
X237539Y52627D01*
X237664Y52669D01*
X237803Y52697D01*
X237962Y52724D01*
X238129Y52732D01*
X238212D01*
X238261Y52724D01*
X238309Y52718D01*
X238427Y52704D01*
X238559Y52676D01*
X238698Y52641D01*
X238837Y52586D01*
X238969Y52516D01*
X238976D01*
X238983Y52509D01*
X239024Y52475D01*
X239080Y52426D01*
X239156Y52364D01*
X239232Y52273D01*
X239309Y52176D01*
X239378Y52058D01*
X239441Y51920D01*
X239447Y51926D01*
X239468Y51954D01*
X239496Y51996D01*
X239545Y52044D01*
X239593Y52107D01*
X239663Y52176D01*
X239739Y52253D01*
X239829Y52329D01*
X239926Y52398D01*
X240037Y52475D01*
X240155Y52544D01*
X240280Y52606D01*
X240419Y52655D01*
X240565Y52697D01*
X240718Y52724D01*
X240877Y52732D01*
X240947D01*
X240988Y52724D01*
D02*
G37*
G36*
X252939D02*
X253001Y52718D01*
X253078Y52711D01*
X253161Y52697D01*
X253251Y52683D01*
X253446Y52634D01*
X253654Y52565D01*
X253758Y52523D01*
X253862Y52475D01*
X253959Y52412D01*
X254049Y52343D01*
X254056Y52336D01*
X254070Y52322D01*
X254098Y52301D01*
X254126Y52273D01*
X254167Y52232D01*
X254209Y52183D01*
X254257Y52128D01*
X254306Y52065D01*
X254362Y51989D01*
X254410Y51912D01*
X254466Y51822D01*
X254514Y51725D01*
X254556Y51621D01*
X254597Y51510D01*
X254639Y51385D01*
X254667Y51260D01*
X253904Y51142D01*
Y51149D01*
X253897Y51163D01*
X253890Y51184D01*
X253883Y51218D01*
X253855Y51302D01*
X253813Y51406D01*
X253758Y51517D01*
X253695Y51635D01*
X253612Y51746D01*
X253515Y51843D01*
X253501Y51857D01*
X253466Y51885D01*
X253404Y51920D01*
X253327Y51968D01*
X253230Y52010D01*
X253119Y52051D01*
X252987Y52079D01*
X252849Y52086D01*
X252793D01*
X252751Y52079D01*
X252696Y52072D01*
X252640Y52065D01*
X252502Y52030D01*
X252349Y51982D01*
X252273Y51947D01*
X252189Y51906D01*
X252113Y51857D01*
X252030Y51795D01*
X251953Y51732D01*
X251884Y51656D01*
X251877Y51649D01*
X251870Y51635D01*
X251849Y51614D01*
X251829Y51573D01*
X251801Y51531D01*
X251766Y51475D01*
X251731Y51406D01*
X251704Y51330D01*
X251669Y51239D01*
X251634Y51142D01*
X251599Y51031D01*
X251572Y50906D01*
X251551Y50774D01*
X251530Y50636D01*
X251523Y50476D01*
X251516Y50309D01*
Y50302D01*
Y50268D01*
Y50219D01*
X251523Y50157D01*
X251530Y50080D01*
X251537Y49990D01*
X251544Y49893D01*
X251558Y49789D01*
X251599Y49567D01*
X251669Y49338D01*
X251704Y49234D01*
X251752Y49130D01*
X251808Y49032D01*
X251870Y48949D01*
X251877Y48942D01*
X251884Y48928D01*
X251905Y48908D01*
X251933Y48887D01*
X251974Y48852D01*
X252016Y48817D01*
X252064Y48776D01*
X252120Y48741D01*
X252259Y48658D01*
X252418Y48595D01*
X252509Y48568D01*
X252599Y48547D01*
X252703Y48533D01*
X252807Y48526D01*
X252849D01*
X252883Y48533D01*
X252925D01*
X252967Y48540D01*
X253078Y48561D01*
X253196Y48595D01*
X253327Y48644D01*
X253452Y48713D01*
X253577Y48803D01*
X253584Y48810D01*
X253591Y48817D01*
X253626Y48859D01*
X253681Y48928D01*
X253709Y48970D01*
X253744Y49019D01*
X253779Y49081D01*
X253813Y49143D01*
X253841Y49213D01*
X253876Y49296D01*
X253904Y49379D01*
X253931Y49477D01*
X253952Y49574D01*
X253973Y49685D01*
X254743Y49581D01*
Y49574D01*
X254736Y49546D01*
X254729Y49504D01*
X254715Y49449D01*
X254695Y49379D01*
X254674Y49303D01*
X254646Y49220D01*
X254611Y49123D01*
X254528Y48928D01*
X254473Y48824D01*
X254410Y48720D01*
X254348Y48616D01*
X254271Y48512D01*
X254181Y48422D01*
X254091Y48331D01*
X254084Y48325D01*
X254070Y48311D01*
X254035Y48290D01*
X254001Y48262D01*
X253945Y48227D01*
X253890Y48186D01*
X253813Y48151D01*
X253737Y48109D01*
X253647Y48061D01*
X253550Y48026D01*
X253446Y47984D01*
X253334Y47950D01*
X253209Y47922D01*
X253085Y47901D01*
X252953Y47887D01*
X252814Y47880D01*
X252772D01*
X252724Y47887D01*
X252654D01*
X252578Y47901D01*
X252481Y47915D01*
X252377Y47929D01*
X252266Y47957D01*
X252148Y47991D01*
X252023Y48033D01*
X251898Y48082D01*
X251766Y48144D01*
X251641Y48213D01*
X251516Y48297D01*
X251398Y48387D01*
X251287Y48498D01*
X251280Y48505D01*
X251259Y48526D01*
X251232Y48561D01*
X251197Y48616D01*
X251155Y48678D01*
X251107Y48755D01*
X251051Y48852D01*
X251003Y48956D01*
X250947Y49074D01*
X250892Y49206D01*
X250843Y49352D01*
X250801Y49511D01*
X250767Y49685D01*
X250739Y49872D01*
X250718Y50073D01*
X250711Y50282D01*
Y50289D01*
Y50316D01*
Y50358D01*
X250718Y50407D01*
Y50476D01*
X250725Y50552D01*
X250732Y50636D01*
X250739Y50733D01*
X250774Y50934D01*
X250815Y51156D01*
X250871Y51385D01*
X250954Y51600D01*
Y51607D01*
X250968Y51628D01*
X250982Y51656D01*
X251003Y51691D01*
X251030Y51739D01*
X251058Y51795D01*
X251141Y51920D01*
X251245Y52051D01*
X251377Y52197D01*
X251530Y52329D01*
X251711Y52447D01*
X251717D01*
X251731Y52461D01*
X251759Y52475D01*
X251801Y52489D01*
X251849Y52516D01*
X251905Y52537D01*
X251967Y52565D01*
X252037Y52593D01*
X252120Y52614D01*
X252203Y52641D01*
X252391Y52690D01*
X252599Y52718D01*
X252814Y52732D01*
X252890D01*
X252939Y52724D01*
D02*
G37*
G36*
X256201Y52086D02*
X256208Y52093D01*
X256228Y52114D01*
X256256Y52148D01*
X256298Y52190D01*
X256353Y52239D01*
X256416Y52287D01*
X256492Y52350D01*
X256582Y52412D01*
X256673Y52468D01*
X256777Y52530D01*
X256895Y52579D01*
X257013Y52634D01*
X257144Y52669D01*
X257283Y52704D01*
X257429Y52724D01*
X257582Y52732D01*
X257665D01*
X257714Y52724D01*
X257762Y52718D01*
X257887Y52704D01*
X258026Y52683D01*
X258172Y52641D01*
X258324Y52593D01*
X258470Y52523D01*
X258477D01*
X258484Y52516D01*
X258505Y52502D01*
X258533Y52489D01*
X258602Y52440D01*
X258685Y52377D01*
X258769Y52301D01*
X258866Y52204D01*
X258949Y52086D01*
X259018Y51961D01*
Y51954D01*
X259025Y51947D01*
X259032Y51926D01*
X259046Y51899D01*
X259060Y51857D01*
X259074Y51815D01*
X259088Y51760D01*
X259102Y51697D01*
X259116Y51628D01*
X259129Y51552D01*
X259143Y51468D01*
X259157Y51371D01*
X259171Y51274D01*
X259178Y51163D01*
X259185Y51045D01*
Y50920D01*
Y47984D01*
X258401D01*
Y50920D01*
Y50927D01*
Y50948D01*
Y50976D01*
X258394Y51017D01*
Y51066D01*
X258387Y51121D01*
X258366Y51246D01*
X258338Y51392D01*
X258290Y51531D01*
X258227Y51670D01*
X258192Y51725D01*
X258144Y51781D01*
X258130Y51795D01*
X258095Y51822D01*
X258040Y51864D01*
X257957Y51920D01*
X257852Y51968D01*
X257734Y52010D01*
X257589Y52038D01*
X257422Y52051D01*
X257367D01*
X257297Y52044D01*
X257207Y52030D01*
X257110Y52003D01*
X256999Y51975D01*
X256881Y51926D01*
X256763Y51864D01*
X256749Y51857D01*
X256714Y51829D01*
X256659Y51788D01*
X256596Y51732D01*
X256520Y51663D01*
X256451Y51579D01*
X256381Y51482D01*
X256326Y51371D01*
X256319Y51357D01*
X256312Y51336D01*
X256305Y51316D01*
X256284Y51246D01*
X256263Y51149D01*
X256242Y51031D01*
X256222Y50885D01*
X256208Y50712D01*
X256201Y50518D01*
Y47984D01*
X255416D01*
Y54390D01*
X256201D01*
Y52086D01*
D02*
G37*
G36*
X227754Y54383D02*
X227830D01*
X227920Y54376D01*
X228024Y54369D01*
X228233Y54348D01*
X228448Y54314D01*
X228656Y54272D01*
X228746Y54244D01*
X228836Y54217D01*
X228843D01*
X228857Y54210D01*
X228878Y54196D01*
X228913Y54182D01*
X228996Y54140D01*
X229093Y54078D01*
X229211Y53995D01*
X229329Y53883D01*
X229447Y53759D01*
X229551Y53606D01*
Y53599D01*
X229565Y53585D01*
X229579Y53564D01*
X229593Y53530D01*
X229613Y53488D01*
X229634Y53439D01*
X229662Y53384D01*
X229690Y53321D01*
X229738Y53176D01*
X229780Y53016D01*
X229808Y52836D01*
X229822Y52641D01*
Y52634D01*
Y52614D01*
Y52572D01*
X229815Y52530D01*
X229808Y52468D01*
X229801Y52398D01*
X229787Y52322D01*
X229766Y52239D01*
X229711Y52058D01*
X229676Y51961D01*
X229634Y51864D01*
X229586Y51767D01*
X229523Y51670D01*
X229454Y51579D01*
X229378Y51489D01*
X229371Y51482D01*
X229357Y51468D01*
X229329Y51448D01*
X229294Y51413D01*
X229246Y51378D01*
X229190Y51336D01*
X229121Y51288D01*
X229037Y51239D01*
X228947Y51191D01*
X228850Y51142D01*
X228739Y51094D01*
X228614Y51045D01*
X228482Y51003D01*
X228337Y50962D01*
X228177Y50927D01*
X228010Y50899D01*
X228017D01*
X228024Y50892D01*
X228066Y50871D01*
X228128Y50837D01*
X228205Y50795D01*
X228288Y50747D01*
X228371Y50698D01*
X228454Y50636D01*
X228524Y50580D01*
X228531Y50573D01*
X228538Y50566D01*
X228559Y50545D01*
X228586Y50518D01*
X228621Y50483D01*
X228663Y50441D01*
X228753Y50344D01*
X228857Y50219D01*
X228975Y50073D01*
X229100Y49907D01*
X229225Y49726D01*
X230335Y47984D01*
X229274D01*
X228427Y49317D01*
X228420Y49324D01*
X228413Y49345D01*
X228392Y49373D01*
X228364Y49414D01*
X228337Y49463D01*
X228295Y49518D01*
X228212Y49643D01*
X228115Y49789D01*
X228017Y49935D01*
X227913Y50073D01*
X227816Y50198D01*
Y50205D01*
X227802Y50212D01*
X227774Y50247D01*
X227733Y50302D01*
X227670Y50365D01*
X227608Y50434D01*
X227532Y50504D01*
X227455Y50573D01*
X227386Y50622D01*
X227379Y50629D01*
X227351Y50643D01*
X227316Y50663D01*
X227268Y50691D01*
X227205Y50719D01*
X227143Y50747D01*
X227074Y50774D01*
X226997Y50795D01*
X226990D01*
X226969Y50802D01*
X226935Y50809D01*
X226886Y50816D01*
X226817D01*
X226733Y50823D01*
X226636Y50830D01*
X225547D01*
Y47984D01*
X224700D01*
Y54390D01*
X227677D01*
X227754Y54383D01*
D02*
G37*
G36*
X244396Y52627D02*
X245194D01*
Y52017D01*
X244396D01*
Y49296D01*
Y49289D01*
Y49282D01*
Y49241D01*
Y49185D01*
X244403Y49116D01*
Y49046D01*
X244416Y48977D01*
X244424Y48915D01*
X244437Y48866D01*
Y48859D01*
X244444Y48852D01*
X244472Y48810D01*
X244514Y48762D01*
X244569Y48713D01*
X244576D01*
X244590Y48706D01*
X244611Y48699D01*
X244639Y48685D01*
X244680Y48678D01*
X244722Y48665D01*
X244777Y48658D01*
X244895D01*
X244937Y48665D01*
X244986D01*
X245048Y48672D01*
X245117Y48678D01*
X245194Y48685D01*
X245298Y47991D01*
X245284D01*
X245242Y47978D01*
X245180Y47971D01*
X245097Y47957D01*
X245006Y47943D01*
X244909Y47936D01*
X244701Y47922D01*
X244632D01*
X244555Y47929D01*
X244458Y47936D01*
X244347Y47957D01*
X244236Y47978D01*
X244132Y48012D01*
X244035Y48054D01*
X244028Y48061D01*
X244000Y48082D01*
X243958Y48109D01*
X243903Y48151D01*
X243847Y48200D01*
X243792Y48262D01*
X243743Y48331D01*
X243702Y48408D01*
X243695Y48422D01*
X243688Y48456D01*
X243681Y48484D01*
X243674Y48519D01*
X243667Y48561D01*
X243660Y48609D01*
X243646Y48665D01*
X243639Y48734D01*
X243632Y48810D01*
X243625Y48894D01*
X243618Y48991D01*
Y49095D01*
X243612Y49213D01*
Y49338D01*
Y52017D01*
X243028D01*
Y52627D01*
X243612D01*
Y53772D01*
X244396Y54244D01*
Y52627D01*
D02*
G37*
G36*
X247956Y52724D02*
X248018D01*
X248102Y52711D01*
X248192Y52697D01*
X248296Y52676D01*
X248407Y52655D01*
X248525Y52620D01*
X248643Y52579D01*
X248775Y52523D01*
X248900Y52461D01*
X249025Y52391D01*
X249150Y52301D01*
X249274Y52204D01*
X249386Y52093D01*
X249393Y52086D01*
X249413Y52065D01*
X249441Y52030D01*
X249476Y51975D01*
X249524Y51912D01*
X249573Y51836D01*
X249628Y51739D01*
X249684Y51635D01*
X249733Y51517D01*
X249788Y51385D01*
X249837Y51239D01*
X249885Y51080D01*
X249920Y50906D01*
X249948Y50719D01*
X249969Y50524D01*
X249975Y50316D01*
Y50302D01*
Y50268D01*
Y50198D01*
X249969Y50108D01*
X246505D01*
Y50101D01*
Y50073D01*
X246512Y50032D01*
X246519Y49983D01*
X246526Y49914D01*
X246540Y49844D01*
X246554Y49761D01*
X246575Y49671D01*
X246630Y49483D01*
X246707Y49282D01*
X246755Y49192D01*
X246804Y49095D01*
X246866Y49012D01*
X246936Y48928D01*
X246943Y48921D01*
X246957Y48915D01*
X246977Y48894D01*
X247005Y48866D01*
X247047Y48838D01*
X247088Y48803D01*
X247144Y48762D01*
X247206Y48727D01*
X247345Y48651D01*
X247512Y48588D01*
X247602Y48561D01*
X247699Y48547D01*
X247803Y48533D01*
X247907Y48526D01*
X247949D01*
X247977Y48533D01*
X248060Y48540D01*
X248164Y48554D01*
X248275Y48581D01*
X248400Y48623D01*
X248525Y48672D01*
X248643Y48748D01*
X248650D01*
X248657Y48762D01*
X248692Y48790D01*
X248747Y48845D01*
X248816Y48928D01*
X248893Y49025D01*
X248976Y49157D01*
X249059Y49310D01*
X249129Y49483D01*
X249948Y49379D01*
Y49373D01*
X249941Y49345D01*
X249927Y49310D01*
X249906Y49262D01*
X249885Y49199D01*
X249857Y49130D01*
X249823Y49053D01*
X249788Y48970D01*
X249691Y48796D01*
X249566Y48609D01*
X249490Y48519D01*
X249413Y48429D01*
X249330Y48345D01*
X249233Y48269D01*
X249226Y48262D01*
X249212Y48255D01*
X249177Y48234D01*
X249143Y48207D01*
X249087Y48179D01*
X249025Y48144D01*
X248955Y48109D01*
X248872Y48075D01*
X248782Y48040D01*
X248678Y48005D01*
X248574Y47971D01*
X248456Y47943D01*
X248331Y47915D01*
X248199Y47894D01*
X248053Y47887D01*
X247907Y47880D01*
X247866D01*
X247810Y47887D01*
X247741D01*
X247651Y47901D01*
X247553Y47915D01*
X247442Y47936D01*
X247324Y47957D01*
X247200Y47991D01*
X247068Y48033D01*
X246929Y48082D01*
X246797Y48144D01*
X246658Y48213D01*
X246533Y48297D01*
X246408Y48394D01*
X246290Y48505D01*
X246283Y48512D01*
X246263Y48533D01*
X246235Y48568D01*
X246200Y48623D01*
X246151Y48685D01*
X246103Y48762D01*
X246047Y48852D01*
X245999Y48956D01*
X245943Y49074D01*
X245888Y49206D01*
X245839Y49352D01*
X245791Y49511D01*
X245756Y49678D01*
X245728Y49858D01*
X245707Y50053D01*
X245700Y50261D01*
Y50275D01*
Y50309D01*
X245707Y50372D01*
Y50455D01*
X245721Y50552D01*
X245735Y50663D01*
X245749Y50795D01*
X245777Y50927D01*
X245805Y51073D01*
X245846Y51218D01*
X245895Y51371D01*
X245950Y51524D01*
X246020Y51670D01*
X246103Y51815D01*
X246193Y51954D01*
X246297Y52079D01*
X246304Y52086D01*
X246325Y52107D01*
X246360Y52142D01*
X246408Y52183D01*
X246464Y52232D01*
X246540Y52287D01*
X246623Y52343D01*
X246721Y52405D01*
X246825Y52468D01*
X246943Y52523D01*
X247075Y52579D01*
X247213Y52627D01*
X247366Y52669D01*
X247519Y52704D01*
X247692Y52724D01*
X247866Y52732D01*
X247907D01*
X247956Y52724D01*
D02*
G37*
G36*
X233021D02*
X233090D01*
X233174Y52711D01*
X233264Y52697D01*
X233368Y52676D01*
X233486Y52655D01*
X233604Y52620D01*
X233736Y52579D01*
X233861Y52523D01*
X233993Y52468D01*
X234124Y52391D01*
X234249Y52308D01*
X234374Y52211D01*
X234492Y52100D01*
X234499Y52093D01*
X234520Y52072D01*
X234548Y52038D01*
X234590Y51982D01*
X234631Y51920D01*
X234687Y51843D01*
X234742Y51753D01*
X234798Y51649D01*
X234853Y51531D01*
X234909Y51399D01*
X234964Y51260D01*
X235006Y51108D01*
X235048Y50941D01*
X235075Y50761D01*
X235096Y50566D01*
X235103Y50365D01*
Y50358D01*
Y50323D01*
Y50282D01*
X235096Y50219D01*
Y50143D01*
X235089Y50053D01*
X235082Y49955D01*
X235068Y49851D01*
X235041Y49629D01*
X234992Y49393D01*
X234923Y49164D01*
X234881Y49060D01*
X234832Y48956D01*
Y48949D01*
X234819Y48935D01*
X234805Y48908D01*
X234784Y48873D01*
X234756Y48831D01*
X234721Y48776D01*
X234631Y48665D01*
X234520Y48533D01*
X234388Y48401D01*
X234229Y48276D01*
X234048Y48158D01*
X234041D01*
X234027Y48144D01*
X234000Y48130D01*
X233958Y48116D01*
X233909Y48096D01*
X233854Y48068D01*
X233791Y48047D01*
X233715Y48019D01*
X233639Y47991D01*
X233548Y47971D01*
X233361Y47922D01*
X233153Y47894D01*
X232931Y47880D01*
X232889D01*
X232841Y47887D01*
X232771D01*
X232688Y47901D01*
X232591Y47915D01*
X232487Y47936D01*
X232369Y47957D01*
X232244Y47991D01*
X232119Y48033D01*
X231987Y48082D01*
X231855Y48144D01*
X231723Y48213D01*
X231598Y48297D01*
X231473Y48394D01*
X231356Y48505D01*
X231348Y48512D01*
X231328Y48533D01*
X231300Y48568D01*
X231265Y48623D01*
X231217Y48685D01*
X231168Y48762D01*
X231113Y48859D01*
X231057Y48963D01*
X231001Y49088D01*
X230946Y49220D01*
X230897Y49366D01*
X230849Y49525D01*
X230814Y49699D01*
X230786Y49886D01*
X230766Y50087D01*
X230759Y50302D01*
Y50309D01*
Y50316D01*
Y50358D01*
X230766Y50427D01*
X230772Y50511D01*
X230779Y50622D01*
X230793Y50747D01*
X230821Y50879D01*
X230849Y51024D01*
X230884Y51177D01*
X230932Y51336D01*
X230995Y51496D01*
X231057Y51656D01*
X231140Y51808D01*
X231238Y51954D01*
X231348Y52086D01*
X231473Y52211D01*
X231480Y52218D01*
X231501Y52232D01*
X231536Y52259D01*
X231577Y52294D01*
X231640Y52329D01*
X231709Y52377D01*
X231786Y52426D01*
X231883Y52475D01*
X231980Y52523D01*
X232091Y52565D01*
X232209Y52614D01*
X232341Y52648D01*
X232480Y52683D01*
X232618Y52711D01*
X232771Y52724D01*
X232931Y52732D01*
X232973D01*
X233021Y52724D01*
D02*
G37*
G36*
X254126Y46509D02*
X254188Y46502D01*
X254264Y46495D01*
X254348Y46481D01*
X254438Y46461D01*
X254639Y46412D01*
X254736Y46377D01*
X254847Y46336D01*
X254952Y46287D01*
X255049Y46224D01*
X255146Y46162D01*
X255243Y46086D01*
X255250Y46079D01*
X255264Y46065D01*
X255292Y46044D01*
X255319Y46009D01*
X255361Y45968D01*
X255403Y45912D01*
X255451Y45850D01*
X255500Y45780D01*
X255548Y45704D01*
X255597Y45614D01*
X255645Y45517D01*
X255694Y45412D01*
X255736Y45301D01*
X255770Y45184D01*
X255805Y45059D01*
X255826Y44920D01*
X255042Y44857D01*
Y44864D01*
X255035Y44878D01*
X255028Y44899D01*
X255021Y44934D01*
X255000Y45017D01*
X254965Y45114D01*
X254924Y45225D01*
X254868Y45336D01*
X254813Y45440D01*
X254743Y45531D01*
X254736Y45537D01*
X254729Y45544D01*
X254709Y45565D01*
X254688Y45586D01*
X254618Y45642D01*
X254521Y45704D01*
X254410Y45766D01*
X254271Y45815D01*
X254119Y45857D01*
X254035Y45864D01*
X253952Y45871D01*
X253890D01*
X253813Y45857D01*
X253723Y45843D01*
X253619Y45815D01*
X253508Y45780D01*
X253397Y45725D01*
X253286Y45655D01*
X253279D01*
X253272Y45642D01*
X253251Y45628D01*
X253223Y45607D01*
X253161Y45544D01*
X253078Y45454D01*
X252980Y45343D01*
X252883Y45204D01*
X252793Y45045D01*
X252703Y44864D01*
Y44857D01*
X252696Y44844D01*
X252682Y44809D01*
X252668Y44767D01*
X252654Y44719D01*
X252634Y44649D01*
X252613Y44573D01*
X252592Y44489D01*
X252571Y44392D01*
X252557Y44281D01*
X252536Y44156D01*
X252516Y44025D01*
X252502Y43886D01*
X252495Y43733D01*
X252488Y43567D01*
X252481Y43400D01*
X252481Y43400D01*
Y43393D01*
X252481Y43400D01*
X252495Y43414D01*
X252509Y43435D01*
X252529Y43462D01*
X252592Y43539D01*
X252668Y43636D01*
X252772Y43740D01*
X252890Y43844D01*
X253022Y43941D01*
X253168Y44032D01*
X253175D01*
X253189Y44038D01*
X253209Y44052D01*
X253237Y44066D01*
X253279Y44080D01*
X253321Y44101D01*
X253432Y44142D01*
X253563Y44177D01*
X253709Y44212D01*
X253869Y44240D01*
X254035Y44247D01*
X254070D01*
X254112Y44240D01*
X254167D01*
X254237Y44226D01*
X254313Y44219D01*
X254403Y44198D01*
X254500Y44177D01*
X254597Y44142D01*
X254709Y44108D01*
X254820Y44059D01*
X254931Y44004D01*
X255049Y43934D01*
X255160Y43858D01*
X255271Y43768D01*
X255375Y43664D01*
X255382Y43657D01*
X255396Y43636D01*
X255423Y43608D01*
X255465Y43560D01*
X255507Y43504D01*
X255548Y43435D01*
X255604Y43351D01*
X255652Y43261D01*
X255701Y43157D01*
X255756Y43046D01*
X255798Y42921D01*
X255847Y42789D01*
X255881Y42650D01*
X255909Y42498D01*
X255923Y42338D01*
X255930Y42172D01*
Y42165D01*
Y42144D01*
Y42116D01*
X255923Y42068D01*
Y42019D01*
X255916Y41956D01*
X255909Y41880D01*
X255895Y41804D01*
X255868Y41630D01*
X255819Y41443D01*
X255756Y41249D01*
X255666Y41047D01*
Y41040D01*
X255652Y41026D01*
X255639Y40999D01*
X255618Y40964D01*
X255590Y40922D01*
X255562Y40874D01*
X255479Y40756D01*
X255382Y40631D01*
X255257Y40499D01*
X255111Y40367D01*
X254952Y40256D01*
X254944D01*
X254931Y40242D01*
X254903Y40228D01*
X254868Y40214D01*
X254826Y40194D01*
X254778Y40173D01*
X254715Y40145D01*
X254653Y40124D01*
X254500Y40069D01*
X254320Y40027D01*
X254126Y39999D01*
X253917Y39985D01*
X253876D01*
X253820Y39992D01*
X253751Y39999D01*
X253668Y40006D01*
X253570Y40027D01*
X253466Y40048D01*
X253348Y40076D01*
X253223Y40117D01*
X253092Y40159D01*
X252960Y40221D01*
X252828Y40291D01*
X252689Y40374D01*
X252564Y40471D01*
X252432Y40582D01*
X252314Y40707D01*
X252307Y40714D01*
X252287Y40742D01*
X252259Y40784D01*
X252217Y40846D01*
X252168Y40922D01*
X252120Y41019D01*
X252064Y41137D01*
X252009Y41276D01*
X251946Y41429D01*
X251891Y41603D01*
X251842Y41797D01*
X251794Y42012D01*
X251752Y42248D01*
X251724Y42505D01*
X251704Y42782D01*
X251697Y43081D01*
Y43088D01*
Y43102D01*
Y43129D01*
Y43164D01*
Y43206D01*
X251704Y43261D01*
Y43317D01*
X251711Y43386D01*
X251717Y43539D01*
X251731Y43712D01*
X251752Y43907D01*
X251780Y44115D01*
X251821Y44337D01*
X251863Y44559D01*
X251919Y44781D01*
X251988Y45003D01*
X252064Y45218D01*
X252155Y45426D01*
X252266Y45614D01*
X252384Y45780D01*
X252391Y45787D01*
X252411Y45815D01*
X252446Y45850D01*
X252495Y45898D01*
X252550Y45954D01*
X252627Y46016D01*
X252710Y46079D01*
X252807Y46148D01*
X252918Y46218D01*
X253043Y46280D01*
X253175Y46343D01*
X253321Y46398D01*
X253473Y46447D01*
X253640Y46481D01*
X253813Y46509D01*
X254001Y46516D01*
X254077D01*
X254126Y46509D01*
D02*
G37*
G36*
X249150D02*
X249212Y46502D01*
X249288Y46495D01*
X249372Y46481D01*
X249462Y46461D01*
X249663Y46412D01*
X249760Y46377D01*
X249871Y46336D01*
X249975Y46287D01*
X250073Y46224D01*
X250170Y46162D01*
X250267Y46086D01*
X250274Y46079D01*
X250288Y46065D01*
X250315Y46044D01*
X250343Y46009D01*
X250385Y45968D01*
X250427Y45912D01*
X250475Y45850D01*
X250524Y45780D01*
X250572Y45704D01*
X250621Y45614D01*
X250670Y45517D01*
X250718Y45412D01*
X250760Y45301D01*
X250794Y45184D01*
X250829Y45059D01*
X250850Y44920D01*
X250066Y44857D01*
Y44864D01*
X250059Y44878D01*
X250052Y44899D01*
X250045Y44934D01*
X250024Y45017D01*
X249989Y45114D01*
X249948Y45225D01*
X249892Y45336D01*
X249837Y45440D01*
X249767Y45531D01*
X249760Y45537D01*
X249753Y45544D01*
X249733Y45565D01*
X249712Y45586D01*
X249642Y45642D01*
X249545Y45704D01*
X249434Y45766D01*
X249295Y45815D01*
X249143Y45857D01*
X249059Y45864D01*
X248976Y45871D01*
X248914D01*
X248837Y45857D01*
X248747Y45843D01*
X248643Y45815D01*
X248532Y45780D01*
X248421Y45725D01*
X248310Y45655D01*
X248303D01*
X248296Y45642D01*
X248275Y45628D01*
X248247Y45607D01*
X248185Y45544D01*
X248102Y45454D01*
X248005Y45343D01*
X247907Y45204D01*
X247817Y45045D01*
X247727Y44864D01*
Y44857D01*
X247720Y44844D01*
X247706Y44809D01*
X247692Y44767D01*
X247678Y44719D01*
X247657Y44649D01*
X247637Y44573D01*
X247616Y44489D01*
X247595Y44392D01*
X247581Y44281D01*
X247560Y44156D01*
X247539Y44025D01*
X247526Y43886D01*
X247519Y43733D01*
X247512Y43567D01*
X247505Y43400D01*
X247505Y43400D01*
Y43393D01*
X247505Y43400D01*
X247519Y43414D01*
X247533Y43435D01*
X247553Y43462D01*
X247616Y43539D01*
X247692Y43636D01*
X247796Y43740D01*
X247914Y43844D01*
X248046Y43941D01*
X248192Y44032D01*
X248199D01*
X248213Y44038D01*
X248234Y44052D01*
X248261Y44066D01*
X248303Y44080D01*
X248345Y44101D01*
X248456Y44142D01*
X248587Y44177D01*
X248733Y44212D01*
X248893Y44240D01*
X249059Y44247D01*
X249094D01*
X249136Y44240D01*
X249191D01*
X249261Y44226D01*
X249337Y44219D01*
X249427Y44198D01*
X249524Y44177D01*
X249622Y44142D01*
X249733Y44108D01*
X249844Y44059D01*
X249955Y44004D01*
X250073Y43934D01*
X250184Y43858D01*
X250295Y43768D01*
X250399Y43664D01*
X250406Y43657D01*
X250420Y43636D01*
X250447Y43608D01*
X250489Y43560D01*
X250531Y43504D01*
X250572Y43435D01*
X250628Y43351D01*
X250676Y43261D01*
X250725Y43157D01*
X250781Y43046D01*
X250822Y42921D01*
X250871Y42789D01*
X250905Y42650D01*
X250933Y42498D01*
X250947Y42338D01*
X250954Y42172D01*
Y42165D01*
Y42144D01*
Y42116D01*
X250947Y42068D01*
Y42019D01*
X250940Y41956D01*
X250933Y41880D01*
X250919Y41804D01*
X250892Y41630D01*
X250843Y41443D01*
X250781Y41249D01*
X250690Y41047D01*
Y41040D01*
X250676Y41026D01*
X250662Y40999D01*
X250642Y40964D01*
X250614Y40922D01*
X250586Y40874D01*
X250503Y40756D01*
X250406Y40631D01*
X250281Y40499D01*
X250135Y40367D01*
X249975Y40256D01*
X249969D01*
X249955Y40242D01*
X249927Y40228D01*
X249892Y40214D01*
X249851Y40194D01*
X249802Y40173D01*
X249740Y40145D01*
X249677Y40124D01*
X249524Y40069D01*
X249344Y40027D01*
X249150Y39999D01*
X248941Y39985D01*
X248900D01*
X248844Y39992D01*
X248775Y39999D01*
X248692Y40006D01*
X248594Y40027D01*
X248490Y40048D01*
X248372Y40076D01*
X248247Y40117D01*
X248116Y40159D01*
X247984Y40221D01*
X247852Y40291D01*
X247713Y40374D01*
X247588Y40471D01*
X247456Y40582D01*
X247338Y40707D01*
X247331Y40714D01*
X247310Y40742D01*
X247283Y40784D01*
X247241Y40846D01*
X247193Y40922D01*
X247144Y41019D01*
X247088Y41137D01*
X247033Y41276D01*
X246971Y41429D01*
X246915Y41603D01*
X246866Y41797D01*
X246818Y42012D01*
X246776Y42248D01*
X246748Y42505D01*
X246728Y42782D01*
X246721Y43081D01*
Y43088D01*
Y43102D01*
Y43129D01*
Y43164D01*
Y43206D01*
X246728Y43261D01*
Y43317D01*
X246734Y43386D01*
X246741Y43539D01*
X246755Y43712D01*
X246776Y43907D01*
X246804Y44115D01*
X246846Y44337D01*
X246887Y44559D01*
X246943Y44781D01*
X247012Y45003D01*
X247088Y45218D01*
X247179Y45426D01*
X247290Y45614D01*
X247408Y45780D01*
X247415Y45787D01*
X247435Y45815D01*
X247470Y45850D01*
X247519Y45898D01*
X247574Y45954D01*
X247651Y46016D01*
X247734Y46079D01*
X247831Y46148D01*
X247942Y46218D01*
X248067Y46280D01*
X248199Y46343D01*
X248345Y46398D01*
X248497Y46447D01*
X248664Y46481D01*
X248837Y46509D01*
X249025Y46516D01*
X249101D01*
X249150Y46509D01*
D02*
G37*
G36*
X268991Y42012D02*
X266569D01*
Y42803D01*
X268991D01*
Y42012D01*
D02*
G37*
G36*
X238191Y40090D02*
X237317D01*
X233958Y45114D01*
Y40090D01*
X233146D01*
Y46495D01*
X234014D01*
X237379Y41464D01*
Y46495D01*
X238191D01*
Y40090D01*
D02*
G37*
G36*
X289291D02*
X288541D01*
X286785Y44732D01*
X287618D01*
X288617Y41949D01*
Y41943D01*
X288624Y41929D01*
X288631Y41908D01*
X288645Y41873D01*
X288659Y41831D01*
X288673Y41783D01*
X288715Y41665D01*
X288763Y41526D01*
X288812Y41366D01*
X288860Y41193D01*
X288916Y41013D01*
Y41019D01*
X288923Y41026D01*
X288930Y41047D01*
X288937Y41075D01*
X288944Y41117D01*
X288958Y41158D01*
X288992Y41262D01*
X289034Y41387D01*
X289082Y41540D01*
X289138Y41707D01*
X289207Y41894D01*
X290241Y44732D01*
X291053D01*
X289291Y40090D01*
D02*
G37*
G36*
X294489D02*
X293704D01*
Y45093D01*
X293690Y45079D01*
X293656Y45045D01*
X293593Y44996D01*
X293503Y44927D01*
X293399Y44844D01*
X293267Y44753D01*
X293122Y44656D01*
X292955Y44552D01*
X292948D01*
X292934Y44538D01*
X292913Y44524D01*
X292879Y44510D01*
X292837Y44483D01*
X292788Y44462D01*
X292677Y44399D01*
X292552Y44337D01*
X292414Y44267D01*
X292268Y44205D01*
X292129Y44150D01*
Y44906D01*
X292136Y44913D01*
X292157Y44920D01*
X292192Y44941D01*
X292240Y44961D01*
X292296Y44989D01*
X292365Y45031D01*
X292441Y45072D01*
X292518Y45114D01*
X292698Y45225D01*
X292892Y45357D01*
X293094Y45496D01*
X293281Y45655D01*
X293288Y45662D01*
X293302Y45676D01*
X293330Y45697D01*
X293364Y45732D01*
X293399Y45773D01*
X293448Y45815D01*
X293552Y45933D01*
X293670Y46058D01*
X293788Y46204D01*
X293892Y46356D01*
X293982Y46516D01*
X294489D01*
Y40090D01*
D02*
G37*
G36*
X272600D02*
X271816D01*
Y45093D01*
X271802Y45079D01*
X271767Y45045D01*
X271705Y44996D01*
X271614Y44927D01*
X271510Y44844D01*
X271378Y44753D01*
X271233Y44656D01*
X271066Y44552D01*
X271059D01*
X271045Y44538D01*
X271024Y44524D01*
X270990Y44510D01*
X270948Y44483D01*
X270900Y44462D01*
X270789Y44399D01*
X270664Y44337D01*
X270525Y44267D01*
X270379Y44205D01*
X270240Y44150D01*
Y44906D01*
X270247Y44913D01*
X270268Y44920D01*
X270303Y44941D01*
X270351Y44961D01*
X270407Y44989D01*
X270476Y45031D01*
X270553Y45072D01*
X270629Y45114D01*
X270809Y45225D01*
X271004Y45357D01*
X271205Y45496D01*
X271392Y45655D01*
X271399Y45662D01*
X271413Y45676D01*
X271441Y45697D01*
X271476Y45732D01*
X271510Y45773D01*
X271559Y45815D01*
X271663Y45933D01*
X271781Y46058D01*
X271899Y46204D01*
X272003Y46356D01*
X272093Y46516D01*
X272600D01*
Y40090D01*
D02*
G37*
G36*
X264994Y42345D02*
X265861D01*
Y41623D01*
X264994D01*
Y40090D01*
X264209D01*
Y41623D01*
X261420D01*
Y42345D01*
X264348Y46495D01*
X264994D01*
Y42345D01*
D02*
G37*
G36*
X259671Y40090D02*
X258886D01*
Y45093D01*
X258873Y45079D01*
X258838Y45045D01*
X258775Y44996D01*
X258685Y44927D01*
X258581Y44844D01*
X258449Y44753D01*
X258303Y44656D01*
X258137Y44552D01*
X258130D01*
X258116Y44538D01*
X258095Y44524D01*
X258061Y44510D01*
X258019Y44483D01*
X257970Y44462D01*
X257859Y44399D01*
X257734Y44337D01*
X257596Y44267D01*
X257450Y44205D01*
X257311Y44150D01*
Y44906D01*
X257318Y44913D01*
X257339Y44920D01*
X257373Y44941D01*
X257422Y44961D01*
X257478Y44989D01*
X257547Y45031D01*
X257623Y45072D01*
X257700Y45114D01*
X257880Y45225D01*
X258074Y45357D01*
X258276Y45496D01*
X258463Y45655D01*
X258470Y45662D01*
X258484Y45676D01*
X258512Y45697D01*
X258546Y45732D01*
X258581Y45773D01*
X258630Y45815D01*
X258734Y45933D01*
X258852Y46058D01*
X258970Y46204D01*
X259074Y46356D01*
X259164Y46516D01*
X259671D01*
Y40090D01*
D02*
G37*
G36*
X244743D02*
X243958D01*
Y45093D01*
X243945Y45079D01*
X243910Y45045D01*
X243847Y44996D01*
X243757Y44927D01*
X243653Y44844D01*
X243521Y44753D01*
X243375Y44656D01*
X243209Y44552D01*
X243202D01*
X243188Y44538D01*
X243167Y44524D01*
X243133Y44510D01*
X243091Y44483D01*
X243042Y44462D01*
X242931Y44399D01*
X242807Y44337D01*
X242668Y44267D01*
X242522Y44205D01*
X242383Y44150D01*
Y44906D01*
X242390Y44913D01*
X242411Y44920D01*
X242446Y44941D01*
X242494Y44961D01*
X242550Y44989D01*
X242619Y45031D01*
X242695Y45072D01*
X242772Y45114D01*
X242952Y45225D01*
X243146Y45357D01*
X243348Y45496D01*
X243535Y45655D01*
X243542Y45662D01*
X243556Y45676D01*
X243584Y45697D01*
X243618Y45732D01*
X243653Y45773D01*
X243702Y45815D01*
X243806Y45933D01*
X243924Y46058D01*
X244042Y46204D01*
X244146Y46356D01*
X244236Y46516D01*
X244743D01*
Y40090D01*
D02*
G37*
G36*
X227476Y46488D02*
X227636Y46481D01*
X227795Y46467D01*
X227948Y46453D01*
X228024Y46447D01*
X228087Y46433D01*
X228094D01*
X228108Y46426D01*
X228135D01*
X228163Y46419D01*
X228205Y46405D01*
X228253Y46398D01*
X228364Y46363D01*
X228489Y46322D01*
X228621Y46266D01*
X228753Y46204D01*
X228878Y46127D01*
X228885D01*
X228892Y46120D01*
X228933Y46086D01*
X228989Y46037D01*
X229065Y45968D01*
X229142Y45884D01*
X229232Y45773D01*
X229315Y45655D01*
X229391Y45510D01*
Y45503D01*
X229398Y45489D01*
X229412Y45468D01*
X229426Y45440D01*
X229440Y45406D01*
X229454Y45357D01*
X229496Y45253D01*
X229530Y45121D01*
X229565Y44975D01*
X229586Y44809D01*
X229593Y44635D01*
Y44628D01*
Y44601D01*
Y44559D01*
X229586Y44497D01*
X229579Y44427D01*
X229565Y44351D01*
X229551Y44260D01*
X229530Y44156D01*
X229503Y44052D01*
X229468Y43941D01*
X229426Y43830D01*
X229371Y43712D01*
X229315Y43594D01*
X229246Y43476D01*
X229162Y43365D01*
X229072Y43254D01*
X229065Y43247D01*
X229044Y43233D01*
X229017Y43206D01*
X228968Y43164D01*
X228913Y43122D01*
X228836Y43074D01*
X228746Y43025D01*
X228642Y42977D01*
X228517Y42921D01*
X228385Y42873D01*
X228225Y42824D01*
X228059Y42782D01*
X227865Y42748D01*
X227656Y42720D01*
X227434Y42699D01*
X227185Y42692D01*
X225547D01*
Y40090D01*
X224700D01*
Y46495D01*
X227337D01*
X227476Y46488D01*
D02*
G37*
G36*
X281809Y46509D02*
X281858Y46502D01*
X281983Y46488D01*
X282122Y46467D01*
X282274Y46426D01*
X282427Y46377D01*
X282580Y46308D01*
X282587D01*
X282600Y46301D01*
X282621Y46287D01*
X282649Y46266D01*
X282718Y46224D01*
X282809Y46155D01*
X282913Y46072D01*
X283017Y45968D01*
X283128Y45843D01*
X283225Y45704D01*
Y45697D01*
X283239Y45683D01*
X283246Y45662D01*
X283267Y45635D01*
X283288Y45600D01*
X283315Y45551D01*
X283336Y45496D01*
X283371Y45440D01*
X283433Y45301D01*
X283496Y45142D01*
X283565Y44954D01*
X283621Y44753D01*
Y44746D01*
X283628Y44725D01*
X283634Y44698D01*
X283641Y44649D01*
X283655Y44594D01*
X283669Y44524D01*
X283683Y44448D01*
X283697Y44358D01*
X283704Y44254D01*
X283718Y44142D01*
X283732Y44018D01*
X283746Y43886D01*
X283752Y43740D01*
X283759Y43587D01*
X283766Y43421D01*
Y43247D01*
Y43233D01*
Y43199D01*
Y43136D01*
Y43060D01*
X283759Y42963D01*
X283752Y42859D01*
X283746Y42734D01*
X283739Y42602D01*
X283725Y42456D01*
X283711Y42310D01*
X283669Y42005D01*
X283607Y41707D01*
X283572Y41561D01*
X283530Y41429D01*
Y41422D01*
X283517Y41401D01*
X283510Y41360D01*
X283489Y41318D01*
X283461Y41256D01*
X283433Y41193D01*
X283399Y41117D01*
X283357Y41033D01*
X283260Y40860D01*
X283142Y40686D01*
X283003Y40513D01*
X282920Y40437D01*
X282836Y40360D01*
X282829Y40353D01*
X282816Y40346D01*
X282788Y40325D01*
X282753Y40305D01*
X282712Y40277D01*
X282656Y40242D01*
X282593Y40207D01*
X282517Y40173D01*
X282441Y40138D01*
X282351Y40103D01*
X282260Y40076D01*
X282156Y40041D01*
X282045Y40020D01*
X281927Y39999D01*
X281809Y39992D01*
X281677Y39985D01*
X281636D01*
X281587Y39992D01*
X281525Y39999D01*
X281448Y40006D01*
X281358Y40020D01*
X281261Y40041D01*
X281150Y40069D01*
X281039Y40103D01*
X280921Y40145D01*
X280796Y40201D01*
X280678Y40263D01*
X280560Y40339D01*
X280442Y40430D01*
X280331Y40527D01*
X280227Y40645D01*
X280220Y40652D01*
X280199Y40679D01*
X280171Y40728D01*
X280130Y40797D01*
X280081Y40888D01*
X280026Y40992D01*
X279970Y41124D01*
X279915Y41269D01*
X279852Y41443D01*
X279797Y41630D01*
X279741Y41845D01*
X279693Y42081D01*
X279651Y42338D01*
X279623Y42616D01*
X279602Y42921D01*
X279595Y43247D01*
Y43261D01*
Y43296D01*
Y43358D01*
X279602Y43435D01*
Y43532D01*
X279609Y43643D01*
X279616Y43768D01*
X279623Y43900D01*
X279637Y44045D01*
X279651Y44191D01*
X279693Y44497D01*
X279748Y44795D01*
X279783Y44941D01*
X279824Y45072D01*
Y45079D01*
X279838Y45100D01*
X279852Y45142D01*
X279866Y45191D01*
X279894Y45246D01*
X279922Y45315D01*
X279956Y45385D01*
X279998Y45468D01*
X280095Y45642D01*
X280220Y45815D01*
X280359Y45989D01*
X280435Y46065D01*
X280518Y46141D01*
X280525Y46148D01*
X280539Y46155D01*
X280567Y46176D01*
X280602Y46197D01*
X280643Y46231D01*
X280699Y46259D01*
X280761Y46294D01*
X280838Y46329D01*
X280914Y46363D01*
X281004Y46398D01*
X281101Y46433D01*
X281199Y46461D01*
X281310Y46481D01*
X281428Y46502D01*
X281553Y46509D01*
X281677Y46516D01*
X281761D01*
X281809Y46509D01*
D02*
G37*
G36*
X276833D02*
X276882Y46502D01*
X277007Y46488D01*
X277146Y46467D01*
X277298Y46426D01*
X277451Y46377D01*
X277604Y46308D01*
X277611D01*
X277624Y46301D01*
X277645Y46287D01*
X277673Y46266D01*
X277742Y46224D01*
X277833Y46155D01*
X277937Y46072D01*
X278041Y45968D01*
X278152Y45843D01*
X278249Y45704D01*
Y45697D01*
X278263Y45683D01*
X278270Y45662D01*
X278291Y45635D01*
X278311Y45600D01*
X278339Y45551D01*
X278360Y45496D01*
X278395Y45440D01*
X278457Y45301D01*
X278520Y45142D01*
X278589Y44954D01*
X278645Y44753D01*
Y44746D01*
X278652Y44725D01*
X278659Y44698D01*
X278665Y44649D01*
X278679Y44594D01*
X278693Y44524D01*
X278707Y44448D01*
X278721Y44358D01*
X278728Y44254D01*
X278742Y44142D01*
X278756Y44018D01*
X278769Y43886D01*
X278777Y43740D01*
X278783Y43587D01*
X278790Y43421D01*
Y43247D01*
Y43233D01*
Y43199D01*
Y43136D01*
Y43060D01*
X278783Y42963D01*
X278777Y42859D01*
X278769Y42734D01*
X278763Y42602D01*
X278749Y42456D01*
X278735Y42310D01*
X278693Y42005D01*
X278631Y41707D01*
X278596Y41561D01*
X278554Y41429D01*
Y41422D01*
X278540Y41401D01*
X278534Y41360D01*
X278513Y41318D01*
X278485Y41256D01*
X278457Y41193D01*
X278422Y41117D01*
X278381Y41033D01*
X278284Y40860D01*
X278166Y40686D01*
X278027Y40513D01*
X277944Y40437D01*
X277860Y40360D01*
X277853Y40353D01*
X277840Y40346D01*
X277812Y40325D01*
X277777Y40305D01*
X277735Y40277D01*
X277680Y40242D01*
X277618Y40207D01*
X277541Y40173D01*
X277465Y40138D01*
X277375Y40103D01*
X277284Y40076D01*
X277180Y40041D01*
X277069Y40020D01*
X276951Y39999D01*
X276833Y39992D01*
X276701Y39985D01*
X276660D01*
X276611Y39992D01*
X276549Y39999D01*
X276472Y40006D01*
X276382Y40020D01*
X276285Y40041D01*
X276174Y40069D01*
X276063Y40103D01*
X275945Y40145D01*
X275820Y40201D01*
X275702Y40263D01*
X275584Y40339D01*
X275466Y40430D01*
X275355Y40527D01*
X275251Y40645D01*
X275244Y40652D01*
X275223Y40679D01*
X275195Y40728D01*
X275154Y40797D01*
X275105Y40888D01*
X275050Y40992D01*
X274994Y41124D01*
X274939Y41269D01*
X274876Y41443D01*
X274821Y41630D01*
X274765Y41845D01*
X274717Y42081D01*
X274675Y42338D01*
X274647Y42616D01*
X274626Y42921D01*
X274619Y43247D01*
Y43261D01*
Y43296D01*
Y43358D01*
X274626Y43435D01*
Y43532D01*
X274633Y43643D01*
X274640Y43768D01*
X274647Y43900D01*
X274661Y44045D01*
X274675Y44191D01*
X274717Y44497D01*
X274772Y44795D01*
X274807Y44941D01*
X274848Y45072D01*
Y45079D01*
X274862Y45100D01*
X274876Y45142D01*
X274890Y45191D01*
X274918Y45246D01*
X274946Y45315D01*
X274980Y45385D01*
X275022Y45468D01*
X275119Y45642D01*
X275244Y45815D01*
X275383Y45989D01*
X275459Y46065D01*
X275542Y46141D01*
X275549Y46148D01*
X275563Y46155D01*
X275591Y46176D01*
X275626Y46197D01*
X275667Y46231D01*
X275723Y46259D01*
X275785Y46294D01*
X275862Y46329D01*
X275938Y46363D01*
X276028Y46398D01*
X276125Y46433D01*
X276223Y46461D01*
X276334Y46481D01*
X276452Y46502D01*
X276576Y46509D01*
X276701Y46516D01*
X276785D01*
X276833Y46509D01*
D02*
G37*
G36*
X230613Y39979D02*
X229981D01*
X231841Y46599D01*
X232473D01*
X230613Y39979D01*
D02*
G37*
G36*
X295176Y37691D02*
X294391D01*
Y38586D01*
X295176D01*
Y37691D01*
D02*
G37*
G36*
X273308D02*
X272523D01*
Y38586D01*
X273308D01*
Y37691D01*
D02*
G37*
G36*
X255416D02*
X254632D01*
Y38586D01*
X255416D01*
Y37691D01*
D02*
G37*
G36*
X245978D02*
X245194D01*
Y38586D01*
X245978D01*
Y37691D01*
D02*
G37*
G36*
X322283Y38691D02*
X322367Y38684D01*
X322464Y38670D01*
X322568Y38656D01*
X322686Y38635D01*
X322811Y38607D01*
X322943Y38579D01*
X323075Y38538D01*
X323213Y38489D01*
X323352Y38434D01*
X323484Y38364D01*
X323616Y38295D01*
X323741Y38205D01*
X323748Y38198D01*
X323768Y38184D01*
X323803Y38156D01*
X323845Y38114D01*
X323900Y38066D01*
X323963Y38003D01*
X324025Y37934D01*
X324102Y37851D01*
X324178Y37760D01*
X324254Y37656D01*
X324331Y37545D01*
X324400Y37420D01*
X324476Y37289D01*
X324539Y37143D01*
X324601Y36990D01*
X324657Y36830D01*
X323824Y36636D01*
Y36643D01*
X323810Y36664D01*
X323803Y36706D01*
X323782Y36754D01*
X323762Y36810D01*
X323727Y36872D01*
X323657Y37025D01*
X323567Y37191D01*
X323449Y37365D01*
X323324Y37525D01*
X323248Y37594D01*
X323172Y37656D01*
X323165Y37663D01*
X323151Y37670D01*
X323130Y37684D01*
X323095Y37705D01*
X323054Y37733D01*
X323005Y37760D01*
X322950Y37788D01*
X322880Y37816D01*
X322804Y37844D01*
X322727Y37872D01*
X322547Y37927D01*
X322339Y37962D01*
X322228Y37976D01*
X322040D01*
X321985Y37969D01*
X321922Y37962D01*
X321846Y37955D01*
X321763Y37948D01*
X321680Y37934D01*
X321478Y37885D01*
X321270Y37823D01*
X321166Y37781D01*
X321062Y37733D01*
X320965Y37677D01*
X320868Y37615D01*
X320861Y37608D01*
X320847Y37601D01*
X320819Y37580D01*
X320784Y37552D01*
X320750Y37518D01*
X320701Y37469D01*
X320652Y37420D01*
X320597Y37365D01*
X320541Y37295D01*
X320479Y37226D01*
X320368Y37067D01*
X320264Y36879D01*
X320174Y36664D01*
Y36657D01*
X320167Y36636D01*
X320153Y36601D01*
X320146Y36560D01*
X320132Y36504D01*
X320111Y36442D01*
X320097Y36366D01*
X320076Y36289D01*
X320056Y36199D01*
X320042Y36102D01*
X320007Y35894D01*
X319986Y35672D01*
X319979Y35436D01*
Y35429D01*
Y35401D01*
Y35359D01*
X319986Y35297D01*
Y35227D01*
X319993Y35144D01*
X320000Y35054D01*
X320007Y34950D01*
X320021Y34839D01*
X320035Y34728D01*
X320076Y34485D01*
X320139Y34242D01*
X320215Y34006D01*
Y33999D01*
X320229Y33978D01*
X320243Y33950D01*
X320257Y33909D01*
X320285Y33853D01*
X320319Y33798D01*
X320396Y33666D01*
X320500Y33513D01*
X320625Y33367D01*
X320777Y33222D01*
X320861Y33159D01*
X320951Y33097D01*
X320958D01*
X320972Y33083D01*
X320999Y33069D01*
X321041Y33048D01*
X321090Y33027D01*
X321145Y33000D01*
X321208Y32979D01*
X321277Y32951D01*
X321437Y32896D01*
X321624Y32847D01*
X321825Y32812D01*
X321929Y32805D01*
X322040Y32798D01*
X322110D01*
X322158Y32805D01*
X322221Y32812D01*
X322290Y32819D01*
X322374Y32833D01*
X322457Y32847D01*
X322651Y32896D01*
X322748Y32930D01*
X322852Y32972D01*
X322956Y33020D01*
X323054Y33076D01*
X323151Y33138D01*
X323248Y33208D01*
X323255Y33215D01*
X323269Y33229D01*
X323297Y33250D01*
X323331Y33284D01*
X323366Y33326D01*
X323415Y33381D01*
X323463Y33444D01*
X323519Y33513D01*
X323574Y33597D01*
X323630Y33687D01*
X323685Y33784D01*
X323741Y33895D01*
X323789Y34013D01*
X323838Y34145D01*
X323886Y34284D01*
X323921Y34429D01*
X324768Y34214D01*
Y34200D01*
X324754Y34166D01*
X324740Y34117D01*
X324712Y34041D01*
X324685Y33957D01*
X324643Y33853D01*
X324601Y33742D01*
X324546Y33624D01*
X324483Y33492D01*
X324414Y33367D01*
X324338Y33229D01*
X324247Y33097D01*
X324150Y32972D01*
X324046Y32847D01*
X323928Y32729D01*
X323803Y32618D01*
X323796Y32611D01*
X323768Y32597D01*
X323734Y32569D01*
X323678Y32535D01*
X323616Y32493D01*
X323533Y32445D01*
X323442Y32396D01*
X323331Y32347D01*
X323213Y32299D01*
X323088Y32250D01*
X322950Y32202D01*
X322797Y32160D01*
X322637Y32125D01*
X322471Y32098D01*
X322297Y32084D01*
X322110Y32077D01*
X322013D01*
X321936Y32084D01*
X321853Y32090D01*
X321749Y32098D01*
X321638Y32111D01*
X321513Y32132D01*
X321381Y32153D01*
X321242Y32181D01*
X321104Y32215D01*
X320965Y32250D01*
X320819Y32299D01*
X320680Y32354D01*
X320548Y32417D01*
X320423Y32493D01*
X320416Y32500D01*
X320396Y32514D01*
X320361Y32535D01*
X320319Y32569D01*
X320264Y32618D01*
X320201Y32667D01*
X320132Y32729D01*
X320056Y32805D01*
X319979Y32889D01*
X319896Y32979D01*
X319820Y33076D01*
X319736Y33187D01*
X319653Y33305D01*
X319577Y33430D01*
X319507Y33569D01*
X319438Y33715D01*
X319431Y33721D01*
X319424Y33749D01*
X319410Y33798D01*
X319389Y33853D01*
X319362Y33930D01*
X319334Y34013D01*
X319306Y34117D01*
X319271Y34228D01*
X319244Y34353D01*
X319209Y34485D01*
X319181Y34624D01*
X319160Y34776D01*
X319119Y35096D01*
X319112Y35262D01*
X319105Y35429D01*
Y35443D01*
Y35470D01*
Y35526D01*
X319112Y35595D01*
X319119Y35685D01*
X319126Y35789D01*
X319140Y35901D01*
X319153Y36026D01*
X319174Y36157D01*
X319195Y36296D01*
X319264Y36595D01*
X319313Y36740D01*
X319362Y36886D01*
X319417Y37039D01*
X319486Y37178D01*
X319494Y37185D01*
X319507Y37212D01*
X319528Y37247D01*
X319556Y37303D01*
X319598Y37365D01*
X319646Y37434D01*
X319702Y37511D01*
X319764Y37601D01*
X319841Y37684D01*
X319917Y37781D01*
X320007Y37872D01*
X320104Y37969D01*
X320208Y38059D01*
X320319Y38149D01*
X320444Y38232D01*
X320569Y38309D01*
X320576Y38316D01*
X320604Y38323D01*
X320639Y38344D01*
X320694Y38371D01*
X320757Y38399D01*
X320840Y38434D01*
X320930Y38468D01*
X321027Y38503D01*
X321138Y38538D01*
X321263Y38572D01*
X321388Y38607D01*
X321527Y38635D01*
X321811Y38684D01*
X321964Y38691D01*
X322124Y38697D01*
X322214D01*
X322283Y38691D01*
D02*
G37*
G36*
X303497Y36921D02*
X303552D01*
X303615Y36914D01*
X303677Y36900D01*
X303753Y36886D01*
X303920Y36851D01*
X304094Y36796D01*
X304274Y36720D01*
X304364Y36671D01*
X304448Y36615D01*
X304454D01*
X304468Y36601D01*
X304489Y36581D01*
X304524Y36560D01*
X304607Y36490D01*
X304704Y36393D01*
X304815Y36268D01*
X304933Y36123D01*
X305037Y35949D01*
X305135Y35755D01*
Y35748D01*
X305141Y35727D01*
X305155Y35699D01*
X305169Y35658D01*
X305190Y35609D01*
X305211Y35547D01*
X305232Y35470D01*
X305253Y35394D01*
X305273Y35304D01*
X305294Y35214D01*
X305336Y35005D01*
X305364Y34776D01*
X305371Y34533D01*
Y34527D01*
Y34499D01*
Y34464D01*
X305364Y34415D01*
Y34353D01*
X305357Y34277D01*
X305350Y34193D01*
X305336Y34103D01*
X305308Y33909D01*
X305259Y33694D01*
X305197Y33472D01*
X305114Y33250D01*
Y33243D01*
X305100Y33222D01*
X305086Y33194D01*
X305065Y33159D01*
X305037Y33111D01*
X305010Y33055D01*
X304926Y32930D01*
X304822Y32785D01*
X304690Y32639D01*
X304545Y32500D01*
X304371Y32375D01*
X304364D01*
X304350Y32361D01*
X304323Y32347D01*
X304288Y32326D01*
X304239Y32306D01*
X304191Y32278D01*
X304128Y32257D01*
X304059Y32229D01*
X303906Y32174D01*
X303733Y32125D01*
X303545Y32090D01*
X303448Y32084D01*
X303344Y32077D01*
X303275D01*
X303205Y32084D01*
X303108Y32098D01*
X302997Y32118D01*
X302879Y32146D01*
X302754Y32181D01*
X302636Y32236D01*
X302622Y32243D01*
X302588Y32264D01*
X302525Y32306D01*
X302456Y32354D01*
X302373Y32410D01*
X302289Y32486D01*
X302206Y32569D01*
X302130Y32660D01*
Y30404D01*
X301345D01*
Y36824D01*
X302060D01*
Y36220D01*
X302074Y36227D01*
X302102Y36268D01*
X302157Y36338D01*
X302227Y36414D01*
X302310Y36497D01*
X302407Y36588D01*
X302511Y36671D01*
X302629Y36747D01*
X302636D01*
X302643Y36754D01*
X302685Y36775D01*
X302754Y36803D01*
X302844Y36838D01*
X302955Y36872D01*
X303087Y36900D01*
X303240Y36921D01*
X303400Y36928D01*
X303455D01*
X303497Y36921D01*
D02*
G37*
G36*
X298521D02*
X298576D01*
X298639Y36914D01*
X298701Y36900D01*
X298778Y36886D01*
X298944Y36851D01*
X299118Y36796D01*
X299298Y36720D01*
X299388Y36671D01*
X299472Y36615D01*
X299479D01*
X299492Y36601D01*
X299513Y36581D01*
X299548Y36560D01*
X299631Y36490D01*
X299728Y36393D01*
X299839Y36268D01*
X299957Y36123D01*
X300061Y35949D01*
X300159Y35755D01*
Y35748D01*
X300166Y35727D01*
X300179Y35699D01*
X300193Y35658D01*
X300214Y35609D01*
X300235Y35547D01*
X300256Y35470D01*
X300277Y35394D01*
X300297Y35304D01*
X300318Y35214D01*
X300360Y35005D01*
X300388Y34776D01*
X300395Y34533D01*
Y34527D01*
Y34499D01*
Y34464D01*
X300388Y34415D01*
Y34353D01*
X300381Y34277D01*
X300374Y34193D01*
X300360Y34103D01*
X300332Y33909D01*
X300284Y33694D01*
X300221Y33472D01*
X300138Y33250D01*
Y33243D01*
X300124Y33222D01*
X300110Y33194D01*
X300089Y33159D01*
X300061Y33111D01*
X300034Y33055D01*
X299950Y32930D01*
X299846Y32785D01*
X299714Y32639D01*
X299569Y32500D01*
X299395Y32375D01*
X299388D01*
X299374Y32361D01*
X299347Y32347D01*
X299312Y32326D01*
X299263Y32306D01*
X299215Y32278D01*
X299152Y32257D01*
X299083Y32229D01*
X298930Y32174D01*
X298757Y32125D01*
X298569Y32090D01*
X298472Y32084D01*
X298368Y32077D01*
X298299D01*
X298229Y32084D01*
X298132Y32098D01*
X298021Y32118D01*
X297903Y32146D01*
X297778Y32181D01*
X297660Y32236D01*
X297646Y32243D01*
X297612Y32264D01*
X297549Y32306D01*
X297480Y32354D01*
X297396Y32410D01*
X297313Y32486D01*
X297230Y32569D01*
X297154Y32660D01*
Y30404D01*
X296369D01*
Y36824D01*
X297084D01*
Y36220D01*
X297098Y36227D01*
X297126Y36268D01*
X297181Y36338D01*
X297251Y36414D01*
X297334Y36497D01*
X297431Y36588D01*
X297535Y36671D01*
X297653Y36747D01*
X297660D01*
X297667Y36754D01*
X297709Y36775D01*
X297778Y36803D01*
X297868Y36838D01*
X297979Y36872D01*
X298111Y36900D01*
X298264Y36921D01*
X298424Y36928D01*
X298479D01*
X298521Y36921D01*
D02*
G37*
G36*
X252134D02*
X252196Y36914D01*
X252259Y36907D01*
X252335Y36893D01*
X252418Y36879D01*
X252585Y36830D01*
X252765Y36761D01*
X252849Y36720D01*
X252932Y36671D01*
X253015Y36608D01*
X253085Y36539D01*
X253092Y36532D01*
X253099Y36518D01*
X253119Y36497D01*
X253140Y36470D01*
X253175Y36428D01*
X253203Y36379D01*
X253237Y36317D01*
X253272Y36248D01*
X253307Y36171D01*
X253341Y36088D01*
X253376Y35991D01*
X253404Y35887D01*
X253425Y35769D01*
X253446Y35644D01*
X253452Y35512D01*
X253459Y35366D01*
Y32181D01*
X252675D01*
Y35102D01*
Y35109D01*
Y35123D01*
Y35151D01*
Y35179D01*
X252668Y35262D01*
Y35366D01*
X252654Y35477D01*
X252640Y35588D01*
X252627Y35692D01*
X252599Y35783D01*
Y35789D01*
X252585Y35817D01*
X252564Y35852D01*
X252536Y35901D01*
X252495Y35956D01*
X252453Y36012D01*
X252391Y36067D01*
X252321Y36116D01*
X252314Y36123D01*
X252287Y36136D01*
X252245Y36157D01*
X252189Y36185D01*
X252120Y36206D01*
X252037Y36227D01*
X251946Y36241D01*
X251849Y36248D01*
X251801D01*
X251766Y36241D01*
X251724D01*
X251676Y36234D01*
X251565Y36206D01*
X251433Y36171D01*
X251294Y36109D01*
X251162Y36032D01*
X251093Y35977D01*
X251030Y35921D01*
Y35914D01*
X251016Y35908D01*
X251003Y35887D01*
X250982Y35859D01*
X250954Y35824D01*
X250926Y35783D01*
X250899Y35727D01*
X250871Y35672D01*
X250836Y35602D01*
X250808Y35526D01*
X250781Y35436D01*
X250753Y35345D01*
X250732Y35241D01*
X250718Y35123D01*
X250711Y35005D01*
X250704Y34874D01*
Y32181D01*
X249920D01*
Y35193D01*
Y35200D01*
Y35214D01*
Y35241D01*
Y35283D01*
X249913Y35325D01*
Y35373D01*
X249899Y35491D01*
X249871Y35616D01*
X249837Y35748D01*
X249788Y35873D01*
X249726Y35984D01*
X249719Y35998D01*
X249691Y36026D01*
X249642Y36067D01*
X249580Y36116D01*
X249490Y36164D01*
X249386Y36206D01*
X249254Y36234D01*
X249101Y36248D01*
X249045D01*
X248983Y36241D01*
X248900Y36227D01*
X248803Y36206D01*
X248698Y36171D01*
X248594Y36130D01*
X248483Y36067D01*
X248469Y36060D01*
X248435Y36032D01*
X248386Y35998D01*
X248331Y35935D01*
X248261Y35866D01*
X248192Y35776D01*
X248129Y35672D01*
X248074Y35554D01*
Y35547D01*
X248067Y35540D01*
X248060Y35519D01*
X248053Y35491D01*
X248046Y35456D01*
X248032Y35415D01*
X248025Y35366D01*
X248011Y35311D01*
X247998Y35241D01*
X247991Y35172D01*
X247977Y35096D01*
X247970Y35005D01*
X247963Y34915D01*
X247956Y34811D01*
X247949Y34707D01*
Y34589D01*
Y32181D01*
X247165D01*
Y36824D01*
X247866D01*
Y36178D01*
X247880Y36185D01*
X247907Y36227D01*
X247956Y36289D01*
X248025Y36366D01*
X248109Y36456D01*
X248206Y36546D01*
X248317Y36636D01*
X248449Y36720D01*
X248456D01*
X248463Y36726D01*
X248483Y36740D01*
X248511Y36754D01*
X248546Y36768D01*
X248587Y36789D01*
X248685Y36824D01*
X248810Y36865D01*
X248948Y36893D01*
X249108Y36921D01*
X249274Y36928D01*
X249358D01*
X249406Y36921D01*
X249455Y36914D01*
X249573Y36900D01*
X249705Y36872D01*
X249844Y36838D01*
X249982Y36782D01*
X250114Y36713D01*
X250121D01*
X250128Y36706D01*
X250170Y36671D01*
X250225Y36622D01*
X250302Y36560D01*
X250378Y36470D01*
X250454Y36373D01*
X250524Y36255D01*
X250586Y36116D01*
X250593Y36123D01*
X250614Y36150D01*
X250642Y36192D01*
X250690Y36241D01*
X250739Y36303D01*
X250808Y36373D01*
X250885Y36449D01*
X250975Y36525D01*
X251072Y36595D01*
X251183Y36671D01*
X251301Y36740D01*
X251426Y36803D01*
X251565Y36851D01*
X251711Y36893D01*
X251863Y36921D01*
X252023Y36928D01*
X252092D01*
X252134Y36921D01*
D02*
G37*
G36*
X263245D02*
X263300D01*
X263432Y36907D01*
X263578Y36886D01*
X263744Y36858D01*
X263904Y36824D01*
X264064Y36768D01*
X264071D01*
X264085Y36761D01*
X264105Y36754D01*
X264133Y36740D01*
X264202Y36706D01*
X264300Y36657D01*
X264397Y36595D01*
X264494Y36518D01*
X264591Y36435D01*
X264674Y36338D01*
X264681Y36324D01*
X264709Y36289D01*
X264744Y36227D01*
X264785Y36150D01*
X264834Y36046D01*
X264876Y35921D01*
X264917Y35783D01*
X264952Y35623D01*
X264182Y35519D01*
Y35526D01*
Y35533D01*
X264168Y35574D01*
X264154Y35644D01*
X264126Y35720D01*
X264085Y35810D01*
X264029Y35901D01*
X263960Y35991D01*
X263876Y36074D01*
X263862Y36081D01*
X263828Y36109D01*
X263772Y36143D01*
X263696Y36178D01*
X263592Y36220D01*
X263467Y36248D01*
X263328Y36275D01*
X263161Y36282D01*
X263071D01*
X263030Y36275D01*
X262981D01*
X262863Y36261D01*
X262738Y36241D01*
X262606Y36206D01*
X262488Y36164D01*
X262440Y36136D01*
X262391Y36102D01*
X262384Y36095D01*
X262356Y36067D01*
X262322Y36032D01*
X262280Y35984D01*
X262231Y35921D01*
X262197Y35845D01*
X262169Y35769D01*
X262162Y35678D01*
Y35672D01*
Y35651D01*
X262169Y35623D01*
X262176Y35588D01*
X262204Y35498D01*
X262225Y35449D01*
X262252Y35401D01*
X262259Y35394D01*
X262273Y35380D01*
X262294Y35359D01*
X262329Y35331D01*
X262370Y35297D01*
X262426Y35262D01*
X262488Y35227D01*
X262558Y35193D01*
X262565D01*
X262585Y35186D01*
X262627Y35172D01*
X262690Y35151D01*
X262731Y35137D01*
X262780Y35123D01*
X262835Y35109D01*
X262898Y35089D01*
X262974Y35068D01*
X263057Y35047D01*
X263148Y35019D01*
X263252Y34991D01*
X263259D01*
X263286Y34984D01*
X263328Y34971D01*
X263390Y34957D01*
X263453Y34936D01*
X263529Y34915D01*
X263619Y34887D01*
X263710Y34860D01*
X263904Y34804D01*
X264091Y34742D01*
X264182Y34714D01*
X264265Y34679D01*
X264341Y34651D01*
X264411Y34624D01*
X264418D01*
X264425Y34617D01*
X264466Y34596D01*
X264529Y34568D01*
X264598Y34519D01*
X264681Y34464D01*
X264772Y34395D01*
X264855Y34311D01*
X264931Y34214D01*
X264938Y34200D01*
X264959Y34166D01*
X264994Y34110D01*
X265028Y34027D01*
X265063Y33930D01*
X265098Y33819D01*
X265119Y33687D01*
X265125Y33541D01*
Y33534D01*
Y33520D01*
Y33499D01*
Y33472D01*
X265112Y33395D01*
X265098Y33298D01*
X265070Y33187D01*
X265028Y33062D01*
X264966Y32930D01*
X264890Y32798D01*
Y32792D01*
X264876Y32785D01*
X264848Y32743D01*
X264792Y32680D01*
X264723Y32604D01*
X264626Y32514D01*
X264515Y32424D01*
X264383Y32340D01*
X264230Y32264D01*
X264223D01*
X264209Y32257D01*
X264189Y32250D01*
X264154Y32236D01*
X264112Y32222D01*
X264064Y32202D01*
X264008Y32188D01*
X263946Y32174D01*
X263800Y32139D01*
X263633Y32104D01*
X263453Y32084D01*
X263252Y32077D01*
X263161D01*
X263099Y32084D01*
X263030Y32090D01*
X262939Y32098D01*
X262842Y32104D01*
X262738Y32125D01*
X262516Y32167D01*
X262280Y32229D01*
X262169Y32271D01*
X262058Y32326D01*
X261961Y32382D01*
X261864Y32445D01*
X261857Y32451D01*
X261843Y32465D01*
X261822Y32486D01*
X261787Y32514D01*
X261753Y32555D01*
X261711Y32604D01*
X261662Y32660D01*
X261614Y32722D01*
X261558Y32798D01*
X261510Y32882D01*
X261461Y32972D01*
X261413Y33076D01*
X261371Y33180D01*
X261329Y33298D01*
X261295Y33430D01*
X261267Y33562D01*
X262044Y33687D01*
Y33680D01*
X262051Y33666D01*
Y33645D01*
X262058Y33610D01*
X262065Y33569D01*
X262079Y33527D01*
X262113Y33423D01*
X262162Y33305D01*
X262225Y33180D01*
X262301Y33069D01*
X262405Y32965D01*
X262412D01*
X262419Y32958D01*
X262460Y32930D01*
X262530Y32889D01*
X262627Y32847D01*
X262745Y32798D01*
X262891Y32764D01*
X263057Y32736D01*
X263245Y32722D01*
X263300D01*
X263335Y32729D01*
X263384D01*
X263432Y32736D01*
X263550Y32750D01*
X263682Y32778D01*
X263821Y32812D01*
X263946Y32868D01*
X264057Y32937D01*
X264071Y32944D01*
X264098Y32979D01*
X264140Y33020D01*
X264189Y33083D01*
X264237Y33159D01*
X264279Y33250D01*
X264307Y33347D01*
X264320Y33458D01*
Y33472D01*
Y33499D01*
X264307Y33555D01*
X264293Y33610D01*
X264265Y33680D01*
X264223Y33749D01*
X264161Y33819D01*
X264085Y33881D01*
X264078Y33888D01*
X264050Y33902D01*
X264001Y33923D01*
X263966Y33937D01*
X263925Y33950D01*
X263869Y33971D01*
X263814Y33992D01*
X263751Y34013D01*
X263675Y34034D01*
X263592Y34062D01*
X263495Y34089D01*
X263390Y34117D01*
X263280Y34145D01*
X263273D01*
X263245Y34152D01*
X263196Y34166D01*
X263141Y34179D01*
X263071Y34200D01*
X262988Y34221D01*
X262898Y34249D01*
X262801Y34277D01*
X262606Y34339D01*
X262405Y34402D01*
X262308Y34429D01*
X262225Y34464D01*
X262141Y34499D01*
X262072Y34527D01*
X262065D01*
X262058Y34533D01*
X262016Y34554D01*
X261961Y34589D01*
X261884Y34644D01*
X261801Y34707D01*
X261718Y34776D01*
X261635Y34866D01*
X261565Y34964D01*
X261558Y34978D01*
X261538Y35012D01*
X261510Y35075D01*
X261482Y35151D01*
X261454Y35241D01*
X261426Y35345D01*
X261406Y35463D01*
X261399Y35588D01*
Y35595D01*
Y35602D01*
Y35644D01*
X261406Y35699D01*
X261420Y35776D01*
X261433Y35866D01*
X261454Y35963D01*
X261489Y36067D01*
X261538Y36164D01*
X261544Y36178D01*
X261565Y36206D01*
X261593Y36255D01*
X261642Y36317D01*
X261690Y36386D01*
X261760Y36463D01*
X261836Y36532D01*
X261926Y36601D01*
X261933Y36608D01*
X261961Y36622D01*
X262002Y36650D01*
X262058Y36678D01*
X262127Y36713D01*
X262211Y36754D01*
X262315Y36796D01*
X262426Y36830D01*
X262433D01*
X262440Y36838D01*
X262481Y36844D01*
X262544Y36858D01*
X262634Y36879D01*
X262731Y36900D01*
X262849Y36914D01*
X262974Y36921D01*
X263106Y36928D01*
X263196D01*
X263245Y36921D01*
D02*
G37*
G36*
X278985D02*
X279047Y36914D01*
X279123Y36907D01*
X279207Y36893D01*
X279297Y36879D01*
X279491Y36830D01*
X279699Y36761D01*
X279804Y36720D01*
X279908Y36671D01*
X280005Y36608D01*
X280095Y36539D01*
X280102Y36532D01*
X280116Y36518D01*
X280144Y36497D01*
X280171Y36470D01*
X280213Y36428D01*
X280255Y36379D01*
X280303Y36324D01*
X280352Y36261D01*
X280407Y36185D01*
X280456Y36109D01*
X280511Y36019D01*
X280560Y35921D01*
X280602Y35817D01*
X280643Y35706D01*
X280685Y35581D01*
X280713Y35456D01*
X279949Y35338D01*
Y35345D01*
X279942Y35359D01*
X279936Y35380D01*
X279928Y35415D01*
X279901Y35498D01*
X279859Y35602D01*
X279804Y35713D01*
X279741Y35831D01*
X279658Y35942D01*
X279561Y36039D01*
X279547Y36053D01*
X279512Y36081D01*
X279450Y36116D01*
X279373Y36164D01*
X279276Y36206D01*
X279165Y36248D01*
X279033Y36275D01*
X278894Y36282D01*
X278839D01*
X278797Y36275D01*
X278742Y36268D01*
X278686Y36261D01*
X278548Y36227D01*
X278395Y36178D01*
X278318Y36143D01*
X278235Y36102D01*
X278159Y36053D01*
X278076Y35991D01*
X277999Y35928D01*
X277930Y35852D01*
X277923Y35845D01*
X277916Y35831D01*
X277895Y35810D01*
X277874Y35769D01*
X277847Y35727D01*
X277812Y35672D01*
X277777Y35602D01*
X277749Y35526D01*
X277715Y35436D01*
X277680Y35338D01*
X277645Y35227D01*
X277618Y35102D01*
X277597Y34971D01*
X277576Y34832D01*
X277569Y34672D01*
X277562Y34506D01*
Y34499D01*
Y34464D01*
Y34415D01*
X277569Y34353D01*
X277576Y34277D01*
X277583Y34186D01*
X277590Y34089D01*
X277604Y33985D01*
X277645Y33763D01*
X277715Y33534D01*
X277749Y33430D01*
X277798Y33326D01*
X277853Y33229D01*
X277916Y33145D01*
X277923Y33138D01*
X277930Y33125D01*
X277951Y33104D01*
X277978Y33083D01*
X278020Y33048D01*
X278062Y33013D01*
X278110Y32972D01*
X278166Y32937D01*
X278305Y32854D01*
X278464Y32792D01*
X278554Y32764D01*
X278645Y32743D01*
X278749Y32729D01*
X278853Y32722D01*
X278894D01*
X278929Y32729D01*
X278971D01*
X279012Y32736D01*
X279123Y32757D01*
X279241Y32792D01*
X279373Y32840D01*
X279498Y32909D01*
X279623Y33000D01*
X279630Y33007D01*
X279637Y33013D01*
X279672Y33055D01*
X279727Y33125D01*
X279755Y33166D01*
X279790Y33215D01*
X279824Y33277D01*
X279859Y33340D01*
X279887Y33409D01*
X279922Y33492D01*
X279949Y33576D01*
X279977Y33673D01*
X279998Y33770D01*
X280019Y33881D01*
X280789Y33777D01*
Y33770D01*
X280782Y33742D01*
X280775Y33701D01*
X280761Y33645D01*
X280740Y33576D01*
X280720Y33499D01*
X280692Y33416D01*
X280657Y33319D01*
X280574Y33125D01*
X280518Y33020D01*
X280456Y32916D01*
X280394Y32812D01*
X280317Y32708D01*
X280227Y32618D01*
X280137Y32528D01*
X280130Y32521D01*
X280116Y32507D01*
X280081Y32486D01*
X280047Y32458D01*
X279991Y32424D01*
X279936Y32382D01*
X279859Y32347D01*
X279783Y32306D01*
X279693Y32257D01*
X279595Y32222D01*
X279491Y32181D01*
X279380Y32146D01*
X279255Y32118D01*
X279130Y32098D01*
X278999Y32084D01*
X278860Y32077D01*
X278818D01*
X278769Y32084D01*
X278700D01*
X278624Y32098D01*
X278527Y32111D01*
X278422Y32125D01*
X278311Y32153D01*
X278193Y32188D01*
X278069Y32229D01*
X277944Y32278D01*
X277812Y32340D01*
X277687Y32410D01*
X277562Y32493D01*
X277444Y32583D01*
X277333Y32694D01*
X277326Y32701D01*
X277305Y32722D01*
X277277Y32757D01*
X277243Y32812D01*
X277201Y32875D01*
X277152Y32951D01*
X277097Y33048D01*
X277048Y33152D01*
X276993Y33270D01*
X276937Y33402D01*
X276889Y33548D01*
X276847Y33707D01*
X276813Y33881D01*
X276785Y34068D01*
X276764Y34270D01*
X276757Y34478D01*
Y34485D01*
Y34513D01*
Y34554D01*
X276764Y34603D01*
Y34672D01*
X276771Y34749D01*
X276778Y34832D01*
X276785Y34929D01*
X276819Y35130D01*
X276861Y35352D01*
X276917Y35581D01*
X277000Y35796D01*
Y35803D01*
X277014Y35824D01*
X277028Y35852D01*
X277048Y35887D01*
X277076Y35935D01*
X277104Y35991D01*
X277187Y36116D01*
X277291Y36248D01*
X277423Y36393D01*
X277576Y36525D01*
X277756Y36643D01*
X277763D01*
X277777Y36657D01*
X277805Y36671D01*
X277847Y36685D01*
X277895Y36713D01*
X277951Y36733D01*
X278013Y36761D01*
X278082Y36789D01*
X278166Y36810D01*
X278249Y36838D01*
X278436Y36886D01*
X278645Y36914D01*
X278860Y36928D01*
X278936D01*
X278985Y36921D01*
D02*
G37*
G36*
X270393Y32181D02*
X269588D01*
X268845Y34957D01*
X268665Y35748D01*
X267714Y32181D01*
X266888D01*
X265486Y36824D01*
X266305D01*
X267041Y34138D01*
X267312Y33145D01*
Y33152D01*
X267319Y33173D01*
X267325Y33187D01*
Y33215D01*
X267339Y33250D01*
X267346Y33291D01*
X267360Y33347D01*
X267374Y33409D01*
X267395Y33485D01*
X267423Y33576D01*
X267450Y33680D01*
X267478Y33805D01*
X267513Y33944D01*
X267554Y34096D01*
X268297Y36824D01*
X269095D01*
X269796Y34124D01*
X270025Y33243D01*
X270289Y34138D01*
X271094Y36824D01*
X271857D01*
X270393Y32181D01*
D02*
G37*
G36*
X308362Y32104D02*
Y32098D01*
X308348Y32070D01*
X308334Y32035D01*
X308313Y31980D01*
X308292Y31917D01*
X308264Y31848D01*
X308230Y31771D01*
X308202Y31688D01*
X308126Y31514D01*
X308056Y31341D01*
X308015Y31258D01*
X307980Y31181D01*
X307952Y31112D01*
X307917Y31056D01*
Y31049D01*
X307911Y31043D01*
X307897Y31022D01*
X307883Y30994D01*
X307834Y30925D01*
X307779Y30841D01*
X307709Y30744D01*
X307626Y30654D01*
X307536Y30564D01*
X307439Y30487D01*
X307425Y30480D01*
X307390Y30460D01*
X307335Y30425D01*
X307258Y30397D01*
X307161Y30362D01*
X307050Y30328D01*
X306932Y30307D01*
X306793Y30300D01*
X306752D01*
X306703Y30307D01*
X306647Y30314D01*
X306571Y30321D01*
X306481Y30342D01*
X306391Y30362D01*
X306287Y30397D01*
X306196Y31133D01*
X306210D01*
X306238Y31119D01*
X306287Y31112D01*
X306349Y31098D01*
X306418Y31084D01*
X306495Y31070D01*
X306571Y31063D01*
X306641Y31056D01*
X306682D01*
X306731Y31063D01*
X306793Y31070D01*
X306856Y31077D01*
X306925Y31098D01*
X306995Y31119D01*
X307057Y31147D01*
X307064Y31154D01*
X307085Y31161D01*
X307113Y31181D01*
X307147Y31209D01*
X307189Y31244D01*
X307237Y31286D01*
X307321Y31390D01*
X307328Y31396D01*
X307335Y31417D01*
X307355Y31452D01*
X307376Y31508D01*
X307411Y31584D01*
X307453Y31688D01*
X307473Y31751D01*
X307501Y31820D01*
X307529Y31896D01*
X307557Y31980D01*
X307564Y31993D01*
X307577Y32028D01*
X307598Y32090D01*
X307633Y32174D01*
X305877Y36824D01*
X306710D01*
X307675Y34131D01*
Y34124D01*
X307682Y34110D01*
X307696Y34082D01*
X307709Y34041D01*
X307723Y33992D01*
X307744Y33937D01*
X307765Y33874D01*
X307793Y33805D01*
X307841Y33645D01*
X307904Y33458D01*
X307959Y33263D01*
X308015Y33055D01*
Y33062D01*
X308022Y33083D01*
X308029Y33111D01*
X308043Y33145D01*
X308049Y33194D01*
X308070Y33256D01*
X308084Y33319D01*
X308105Y33388D01*
X308154Y33548D01*
X308209Y33728D01*
X308272Y33916D01*
X308341Y34110D01*
X309340Y36824D01*
X310124D01*
X308362Y32104D01*
D02*
G37*
G36*
X331104Y32181D02*
X330139D01*
X329397Y34117D01*
X326704D01*
X326010Y32181D01*
X325115D01*
X327565Y38586D01*
X328481D01*
X331104Y32181D01*
D02*
G37*
G36*
X316155Y38579D02*
X316315Y38572D01*
X316475Y38559D01*
X316627Y38545D01*
X316704Y38538D01*
X316766Y38524D01*
X316773D01*
X316787Y38517D01*
X316815D01*
X316842Y38510D01*
X316884Y38496D01*
X316933Y38489D01*
X317044Y38454D01*
X317169Y38413D01*
X317300Y38357D01*
X317432Y38295D01*
X317557Y38219D01*
X317564D01*
X317571Y38212D01*
X317613Y38177D01*
X317668Y38128D01*
X317745Y38059D01*
X317821Y37976D01*
X317911Y37865D01*
X317994Y37747D01*
X318071Y37601D01*
Y37594D01*
X318078Y37580D01*
X318092Y37559D01*
X318106Y37532D01*
X318119Y37497D01*
X318133Y37448D01*
X318175Y37344D01*
X318210Y37212D01*
X318244Y37067D01*
X318265Y36900D01*
X318272Y36726D01*
Y36720D01*
Y36692D01*
Y36650D01*
X318265Y36588D01*
X318258Y36518D01*
X318244Y36442D01*
X318230Y36352D01*
X318210Y36248D01*
X318182Y36143D01*
X318147Y36032D01*
X318106Y35921D01*
X318050Y35803D01*
X317994Y35685D01*
X317925Y35568D01*
X317842Y35456D01*
X317752Y35345D01*
X317745Y35338D01*
X317724Y35325D01*
X317696Y35297D01*
X317647Y35255D01*
X317592Y35214D01*
X317516Y35165D01*
X317425Y35116D01*
X317321Y35068D01*
X317196Y35012D01*
X317064Y34964D01*
X316905Y34915D01*
X316738Y34874D01*
X316544Y34839D01*
X316336Y34811D01*
X316114Y34790D01*
X315864Y34783D01*
X314226D01*
Y32181D01*
X313379D01*
Y38586D01*
X316017D01*
X316155Y38579D01*
D02*
G37*
G36*
X295176Y32181D02*
X294391D01*
Y36824D01*
X295176D01*
Y32181D01*
D02*
G37*
G36*
X293468Y37830D02*
X289867Y33388D01*
X289485Y32937D01*
X293573D01*
Y32181D01*
X288513D01*
Y32965D01*
X291789Y37060D01*
X291796Y37067D01*
X291803Y37080D01*
X291824Y37101D01*
X291851Y37136D01*
X291879Y37171D01*
X291914Y37219D01*
X292004Y37323D01*
X292101Y37441D01*
X292219Y37573D01*
X292337Y37705D01*
X292455Y37830D01*
X288881D01*
Y38586D01*
X293468D01*
Y37830D01*
D02*
G37*
G36*
X282246Y36282D02*
X282253Y36289D01*
X282274Y36310D01*
X282302Y36345D01*
X282344Y36386D01*
X282399Y36435D01*
X282462Y36483D01*
X282538Y36546D01*
X282628Y36608D01*
X282718Y36664D01*
X282822Y36726D01*
X282941Y36775D01*
X283059Y36830D01*
X283190Y36865D01*
X283329Y36900D01*
X283475Y36921D01*
X283628Y36928D01*
X283711D01*
X283759Y36921D01*
X283808Y36914D01*
X283933Y36900D01*
X284072Y36879D01*
X284217Y36838D01*
X284370Y36789D01*
X284516Y36720D01*
X284523D01*
X284530Y36713D01*
X284551Y36699D01*
X284578Y36685D01*
X284648Y36636D01*
X284731Y36574D01*
X284814Y36497D01*
X284911Y36400D01*
X284995Y36282D01*
X285064Y36157D01*
Y36150D01*
X285071Y36143D01*
X285078Y36123D01*
X285092Y36095D01*
X285106Y36053D01*
X285120Y36012D01*
X285134Y35956D01*
X285147Y35894D01*
X285161Y35824D01*
X285175Y35748D01*
X285189Y35665D01*
X285203Y35568D01*
X285217Y35470D01*
X285224Y35359D01*
X285231Y35241D01*
Y35116D01*
Y32181D01*
X284447D01*
Y35116D01*
Y35123D01*
Y35144D01*
Y35172D01*
X284439Y35214D01*
Y35262D01*
X284433Y35318D01*
X284412Y35443D01*
X284384Y35588D01*
X284335Y35727D01*
X284273Y35866D01*
X284238Y35921D01*
X284190Y35977D01*
X284176Y35991D01*
X284141Y36019D01*
X284086Y36060D01*
X284002Y36116D01*
X283898Y36164D01*
X283780Y36206D01*
X283634Y36234D01*
X283468Y36248D01*
X283412D01*
X283343Y36241D01*
X283253Y36227D01*
X283156Y36199D01*
X283045Y36171D01*
X282927Y36123D01*
X282809Y36060D01*
X282795Y36053D01*
X282760Y36026D01*
X282704Y35984D01*
X282642Y35928D01*
X282566Y35859D01*
X282496Y35776D01*
X282427Y35678D01*
X282371Y35568D01*
X282365Y35554D01*
X282358Y35533D01*
X282351Y35512D01*
X282330Y35443D01*
X282309Y35345D01*
X282288Y35227D01*
X282267Y35082D01*
X282253Y34908D01*
X282246Y34714D01*
Y32181D01*
X281462D01*
Y38586D01*
X282246D01*
Y36282D01*
D02*
G37*
G36*
X273308Y32181D02*
X272523D01*
Y36824D01*
X273308D01*
Y32181D01*
D02*
G37*
G36*
X255416D02*
X254632D01*
Y36824D01*
X255416D01*
Y32181D01*
D02*
G37*
G36*
X245978D02*
X245194D01*
Y36824D01*
X245978D01*
Y32181D01*
D02*
G37*
G36*
X241120Y32937D02*
X244278D01*
Y32181D01*
X240273D01*
Y38586D01*
X241120D01*
Y32937D01*
D02*
G37*
G36*
X234430Y38579D02*
X234506D01*
X234596Y38572D01*
X234700Y38565D01*
X234909Y38545D01*
X235124Y38510D01*
X235332Y38468D01*
X235422Y38441D01*
X235512Y38413D01*
X235520D01*
X235533Y38406D01*
X235554Y38392D01*
X235589Y38378D01*
X235672Y38337D01*
X235769Y38274D01*
X235887Y38191D01*
X236005Y38080D01*
X236123Y37955D01*
X236227Y37802D01*
Y37795D01*
X236241Y37781D01*
X236255Y37760D01*
X236269Y37726D01*
X236290Y37684D01*
X236311Y37636D01*
X236338Y37580D01*
X236366Y37518D01*
X236415Y37372D01*
X236456Y37212D01*
X236484Y37032D01*
X236498Y36838D01*
Y36830D01*
Y36810D01*
Y36768D01*
X236491Y36726D01*
X236484Y36664D01*
X236477Y36595D01*
X236463Y36518D01*
X236442Y36435D01*
X236387Y36255D01*
X236352Y36157D01*
X236311Y36060D01*
X236262Y35963D01*
X236200Y35866D01*
X236130Y35776D01*
X236054Y35685D01*
X236047Y35678D01*
X236033Y35665D01*
X236005Y35644D01*
X235971Y35609D01*
X235922Y35574D01*
X235866Y35533D01*
X235797Y35484D01*
X235714Y35436D01*
X235624Y35387D01*
X235526Y35338D01*
X235415Y35290D01*
X235290Y35241D01*
X235159Y35200D01*
X235013Y35158D01*
X234853Y35123D01*
X234687Y35096D01*
X234694D01*
X234700Y35089D01*
X234742Y35068D01*
X234805Y35033D01*
X234881Y34991D01*
X234964Y34943D01*
X235048Y34894D01*
X235131Y34832D01*
X235200Y34776D01*
X235207Y34769D01*
X235214Y34762D01*
X235235Y34742D01*
X235263Y34714D01*
X235297Y34679D01*
X235339Y34637D01*
X235429Y34540D01*
X235533Y34415D01*
X235651Y34270D01*
X235776Y34103D01*
X235901Y33923D01*
X237012Y32181D01*
X235950D01*
X235103Y33513D01*
X235096Y33520D01*
X235089Y33541D01*
X235068Y33569D01*
X235041Y33610D01*
X235013Y33659D01*
X234971Y33715D01*
X234888Y33839D01*
X234791Y33985D01*
X234694Y34131D01*
X234590Y34270D01*
X234492Y34395D01*
Y34402D01*
X234478Y34409D01*
X234451Y34443D01*
X234409Y34499D01*
X234347Y34561D01*
X234284Y34631D01*
X234208Y34700D01*
X234132Y34769D01*
X234062Y34818D01*
X234055Y34825D01*
X234027Y34839D01*
X233993Y34860D01*
X233944Y34887D01*
X233882Y34915D01*
X233819Y34943D01*
X233750Y34971D01*
X233673Y34991D01*
X233666D01*
X233646Y34998D01*
X233611Y35005D01*
X233562Y35012D01*
X233493D01*
X233410Y35019D01*
X233313Y35026D01*
X232223D01*
Y32181D01*
X231376D01*
Y38586D01*
X234353D01*
X234430Y38579D01*
D02*
G37*
G36*
X230689Y32181D02*
X229725D01*
X228982Y34117D01*
X226289D01*
X225595Y32181D01*
X224700D01*
X227150Y38586D01*
X228066D01*
X230689Y32181D01*
D02*
G37*
G36*
X275417Y36824D02*
X276216D01*
Y36213D01*
X275417D01*
Y33492D01*
Y33485D01*
Y33479D01*
Y33437D01*
Y33381D01*
X275425Y33312D01*
Y33243D01*
X275438Y33173D01*
X275445Y33111D01*
X275459Y33062D01*
Y33055D01*
X275466Y33048D01*
X275494Y33007D01*
X275535Y32958D01*
X275591Y32909D01*
X275598D01*
X275612Y32903D01*
X275633Y32896D01*
X275660Y32882D01*
X275702Y32875D01*
X275744Y32861D01*
X275799Y32854D01*
X275917D01*
X275959Y32861D01*
X276007D01*
X276070Y32868D01*
X276139Y32875D01*
X276216Y32882D01*
X276320Y32188D01*
X276306D01*
X276264Y32174D01*
X276202Y32167D01*
X276118Y32153D01*
X276028Y32139D01*
X275931Y32132D01*
X275723Y32118D01*
X275654D01*
X275577Y32125D01*
X275480Y32132D01*
X275369Y32153D01*
X275258Y32174D01*
X275154Y32208D01*
X275057Y32250D01*
X275050Y32257D01*
X275022Y32278D01*
X274980Y32306D01*
X274925Y32347D01*
X274869Y32396D01*
X274814Y32458D01*
X274765Y32528D01*
X274724Y32604D01*
X274717Y32618D01*
X274710Y32653D01*
X274703Y32680D01*
X274696Y32715D01*
X274689Y32757D01*
X274682Y32805D01*
X274668Y32861D01*
X274661Y32930D01*
X274654Y33007D01*
X274647Y33090D01*
X274640Y33187D01*
Y33291D01*
X274633Y33409D01*
Y33534D01*
Y36213D01*
X274050D01*
Y36824D01*
X274633D01*
Y37969D01*
X275417Y38441D01*
Y36824D01*
D02*
G37*
G36*
X257526D02*
X258324D01*
Y36213D01*
X257526D01*
Y33492D01*
Y33485D01*
Y33479D01*
Y33437D01*
Y33381D01*
X257533Y33312D01*
Y33243D01*
X257547Y33173D01*
X257554Y33111D01*
X257568Y33062D01*
Y33055D01*
X257575Y33048D01*
X257603Y33007D01*
X257644Y32958D01*
X257700Y32909D01*
X257707D01*
X257720Y32903D01*
X257741Y32896D01*
X257769Y32882D01*
X257811Y32875D01*
X257852Y32861D01*
X257908Y32854D01*
X258026D01*
X258067Y32861D01*
X258116D01*
X258179Y32868D01*
X258248Y32875D01*
X258324Y32882D01*
X258428Y32188D01*
X258415D01*
X258373Y32174D01*
X258310Y32167D01*
X258227Y32153D01*
X258137Y32139D01*
X258040Y32132D01*
X257832Y32118D01*
X257762D01*
X257686Y32125D01*
X257589Y32132D01*
X257478Y32153D01*
X257367Y32174D01*
X257262Y32208D01*
X257165Y32250D01*
X257158Y32257D01*
X257131Y32278D01*
X257089Y32306D01*
X257033Y32347D01*
X256978Y32396D01*
X256922Y32458D01*
X256874Y32528D01*
X256832Y32604D01*
X256825Y32618D01*
X256818Y32653D01*
X256811Y32680D01*
X256804Y32715D01*
X256798Y32757D01*
X256791Y32805D01*
X256777Y32861D01*
X256770Y32930D01*
X256763Y33007D01*
X256756Y33090D01*
X256749Y33187D01*
Y33291D01*
X256742Y33409D01*
Y33534D01*
Y36213D01*
X256159D01*
Y36824D01*
X256742D01*
Y37969D01*
X257526Y38441D01*
Y36824D01*
D02*
G37*
G36*
X682101Y66630D02*
X681424D01*
Y69045D01*
X678765D01*
Y66630D01*
X678088D01*
Y71753D01*
X678765D01*
Y69649D01*
X681424D01*
Y71753D01*
X682101D01*
Y66630D01*
D02*
G37*
G36*
X684793Y71764D02*
X684854Y71759D01*
X684926Y71747D01*
X685009Y71736D01*
X685092Y71720D01*
X685187Y71697D01*
X685281Y71670D01*
X685381Y71636D01*
X685475Y71598D01*
X685575Y71548D01*
X685670Y71492D01*
X685758Y71431D01*
X685842Y71359D01*
X685847Y71353D01*
X685858Y71342D01*
X685881Y71315D01*
X685908Y71287D01*
X685942Y71248D01*
X685981Y71198D01*
X686019Y71143D01*
X686058Y71076D01*
X686097Y71009D01*
X686136Y70932D01*
X686175Y70848D01*
X686208Y70760D01*
X686236Y70660D01*
X686258Y70560D01*
X686269Y70454D01*
X686275Y70343D01*
Y70338D01*
Y70332D01*
Y70315D01*
Y70293D01*
X686269Y70232D01*
X686258Y70155D01*
X686241Y70060D01*
X686219Y69960D01*
X686191Y69849D01*
X686147Y69738D01*
Y69733D01*
X686141Y69727D01*
X686136Y69711D01*
X686125Y69688D01*
X686092Y69627D01*
X686047Y69550D01*
X685986Y69455D01*
X685914Y69350D01*
X685831Y69239D01*
X685725Y69117D01*
X685720Y69111D01*
X685714Y69100D01*
X685692Y69083D01*
X685670Y69056D01*
X685636Y69022D01*
X685598Y68984D01*
X685553Y68934D01*
X685498Y68884D01*
X685431Y68823D01*
X685359Y68756D01*
X685281Y68678D01*
X685192Y68601D01*
X685098Y68512D01*
X684993Y68423D01*
X684876Y68323D01*
X684754Y68218D01*
X684748Y68212D01*
X684732Y68195D01*
X684698Y68173D01*
X684665Y68140D01*
X684615Y68101D01*
X684565Y68057D01*
X684449Y67957D01*
X684327Y67851D01*
X684210Y67740D01*
X684155Y67690D01*
X684105Y67646D01*
X684060Y67602D01*
X684027Y67568D01*
X684021Y67563D01*
X683999Y67541D01*
X683971Y67507D01*
X683932Y67463D01*
X683888Y67413D01*
X683844Y67357D01*
X683755Y67235D01*
X686280D01*
Y66630D01*
X682889D01*
Y66641D01*
Y66669D01*
Y66714D01*
X682895Y66769D01*
X682900Y66836D01*
X682917Y66908D01*
X682934Y66986D01*
X682961Y67063D01*
Y67069D01*
X682967Y67080D01*
X682972Y67097D01*
X682983Y67124D01*
X683000Y67152D01*
X683017Y67191D01*
X683061Y67280D01*
X683117Y67385D01*
X683189Y67502D01*
X683272Y67624D01*
X683372Y67746D01*
X683378Y67751D01*
X683383Y67763D01*
X683400Y67779D01*
X683427Y67807D01*
X683455Y67835D01*
X683494Y67874D01*
X683533Y67918D01*
X683583Y67968D01*
X683638Y68023D01*
X683699Y68079D01*
X683766Y68146D01*
X683844Y68212D01*
X683921Y68284D01*
X684010Y68356D01*
X684099Y68434D01*
X684199Y68517D01*
X684210Y68523D01*
X684238Y68551D01*
X684277Y68584D01*
X684332Y68634D01*
X684399Y68689D01*
X684477Y68756D01*
X684565Y68828D01*
X684654Y68911D01*
X684843Y69083D01*
X685026Y69267D01*
X685115Y69355D01*
X685198Y69444D01*
X685270Y69527D01*
X685331Y69605D01*
X685337Y69611D01*
X685342Y69622D01*
X685359Y69644D01*
X685376Y69672D01*
X685403Y69711D01*
X685426Y69749D01*
X685481Y69849D01*
X685536Y69966D01*
X685586Y70094D01*
X685620Y70227D01*
X685625Y70293D01*
X685631Y70360D01*
Y70366D01*
Y70377D01*
Y70399D01*
X685625Y70421D01*
Y70454D01*
X685614Y70493D01*
X685598Y70576D01*
X685564Y70676D01*
X685514Y70782D01*
X685487Y70837D01*
X685448Y70887D01*
X685409Y70937D01*
X685359Y70987D01*
X685353Y70993D01*
X685348Y70998D01*
X685331Y71009D01*
X685309Y71026D01*
X685281Y71048D01*
X685248Y71070D01*
X685170Y71120D01*
X685065Y71165D01*
X684948Y71209D01*
X684809Y71237D01*
X684732Y71248D01*
X684610D01*
X684576Y71242D01*
X684538D01*
X684493Y71231D01*
X684393Y71215D01*
X684277Y71181D01*
X684155Y71131D01*
X684094Y71098D01*
X684032Y71065D01*
X683977Y71020D01*
X683921Y70970D01*
X683916Y70965D01*
X683910Y70959D01*
X683899Y70943D01*
X683877Y70920D01*
X683860Y70893D01*
X683838Y70859D01*
X683811Y70821D01*
X683788Y70776D01*
X683760Y70726D01*
X683738Y70671D01*
X683694Y70538D01*
X683661Y70393D01*
X683655Y70310D01*
X683649Y70221D01*
X683006Y70288D01*
Y70299D01*
X683011Y70321D01*
X683017Y70354D01*
X683022Y70404D01*
X683033Y70465D01*
X683050Y70538D01*
X683067Y70615D01*
X683095Y70698D01*
X683122Y70782D01*
X683156Y70876D01*
X683200Y70965D01*
X683244Y71054D01*
X683300Y71148D01*
X683361Y71231D01*
X683427Y71315D01*
X683505Y71387D01*
X683511Y71392D01*
X683527Y71403D01*
X683550Y71420D01*
X683583Y71448D01*
X683627Y71475D01*
X683683Y71509D01*
X683744Y71542D01*
X683816Y71581D01*
X683894Y71614D01*
X683983Y71648D01*
X684077Y71681D01*
X684182Y71709D01*
X684293Y71736D01*
X684410Y71753D01*
X684538Y71764D01*
X684671Y71770D01*
X684743D01*
X684793Y71764D01*
D02*
G37*
G36*
X677361Y71148D02*
X675674D01*
Y66630D01*
X674997D01*
Y71148D01*
X673310D01*
Y71753D01*
X677361D01*
Y71148D01*
D02*
G37*
G36*
X671140Y71747D02*
X671268Y71742D01*
X671395Y71731D01*
X671517Y71720D01*
X671578Y71714D01*
X671628Y71703D01*
X671634D01*
X671645Y71697D01*
X671667D01*
X671689Y71692D01*
X671723Y71681D01*
X671761Y71675D01*
X671850Y71648D01*
X671950Y71614D01*
X672056Y71570D01*
X672161Y71520D01*
X672261Y71459D01*
X672266D01*
X672272Y71453D01*
X672305Y71425D01*
X672350Y71387D01*
X672411Y71331D01*
X672472Y71265D01*
X672544Y71176D01*
X672611Y71081D01*
X672672Y70965D01*
Y70959D01*
X672677Y70948D01*
X672688Y70932D01*
X672699Y70909D01*
X672711Y70882D01*
X672722Y70843D01*
X672755Y70760D01*
X672783Y70654D01*
X672810Y70538D01*
X672827Y70404D01*
X672832Y70266D01*
Y70260D01*
Y70238D01*
Y70205D01*
X672827Y70155D01*
X672822Y70099D01*
X672810Y70038D01*
X672799Y69966D01*
X672783Y69883D01*
X672760Y69799D01*
X672733Y69711D01*
X672699Y69622D01*
X672655Y69527D01*
X672611Y69433D01*
X672555Y69339D01*
X672488Y69250D01*
X672416Y69161D01*
X672411Y69156D01*
X672394Y69144D01*
X672372Y69122D01*
X672333Y69089D01*
X672289Y69056D01*
X672228Y69017D01*
X672156Y68978D01*
X672072Y68939D01*
X671972Y68895D01*
X671867Y68856D01*
X671739Y68817D01*
X671606Y68784D01*
X671451Y68756D01*
X671284Y68734D01*
X671106Y68717D01*
X670907Y68712D01*
X669597D01*
Y66630D01*
X668920D01*
Y71753D01*
X671029D01*
X671140Y71747D01*
D02*
G37*
G36*
X464625Y26136D02*
Y26125D01*
Y26103D01*
Y26064D01*
Y26009D01*
X464619Y25942D01*
X464614Y25870D01*
X464608Y25787D01*
X464603Y25692D01*
X464581Y25498D01*
X464553Y25293D01*
X464508Y25093D01*
X464481Y24999D01*
X464447Y24910D01*
Y24904D01*
X464442Y24888D01*
X464431Y24866D01*
X464414Y24832D01*
X464392Y24793D01*
X464370Y24749D01*
X464303Y24649D01*
X464264Y24588D01*
X464220Y24532D01*
X464164Y24466D01*
X464109Y24405D01*
X464042Y24344D01*
X463976Y24283D01*
X463898Y24227D01*
X463815Y24172D01*
X463809Y24166D01*
X463793Y24161D01*
X463770Y24144D01*
X463731Y24127D01*
X463687Y24105D01*
X463632Y24083D01*
X463571Y24055D01*
X463493Y24033D01*
X463415Y24005D01*
X463326Y23978D01*
X463227Y23955D01*
X463121Y23933D01*
X463004Y23916D01*
X462882Y23900D01*
X462755Y23894D01*
X462621Y23889D01*
X462549D01*
X462499Y23894D01*
X462438D01*
X462372Y23900D01*
X462289Y23911D01*
X462205Y23922D01*
X462017Y23950D01*
X461817Y23994D01*
X461622Y24055D01*
X461528Y24089D01*
X461439Y24133D01*
X461434Y24138D01*
X461417Y24144D01*
X461395Y24161D01*
X461367Y24177D01*
X461328Y24205D01*
X461284Y24238D01*
X461240Y24272D01*
X461190Y24316D01*
X461079Y24416D01*
X460973Y24538D01*
X460873Y24682D01*
X460829Y24766D01*
X460790Y24849D01*
Y24854D01*
X460784Y24871D01*
X460773Y24899D01*
X460762Y24938D01*
X460746Y24982D01*
X460729Y25043D01*
X460712Y25110D01*
X460696Y25187D01*
X460674Y25276D01*
X460657Y25371D01*
X460640Y25476D01*
X460629Y25593D01*
X460612Y25715D01*
X460607Y25848D01*
X460596Y25987D01*
Y26136D01*
Y29095D01*
X461273D01*
Y26136D01*
Y26131D01*
Y26109D01*
Y26075D01*
Y26026D01*
X461278Y25970D01*
Y25909D01*
X461284Y25837D01*
X461290Y25765D01*
X461301Y25604D01*
X461323Y25443D01*
X461356Y25287D01*
X461373Y25215D01*
X461395Y25154D01*
Y25149D01*
X461401Y25143D01*
X461406Y25126D01*
X461417Y25104D01*
X461450Y25043D01*
X461495Y24976D01*
X461550Y24893D01*
X461622Y24816D01*
X461711Y24738D01*
X461817Y24666D01*
X461822D01*
X461833Y24660D01*
X461850Y24649D01*
X461872Y24638D01*
X461900Y24627D01*
X461939Y24616D01*
X461978Y24599D01*
X462022Y24582D01*
X462133Y24555D01*
X462261Y24527D01*
X462405Y24505D01*
X462561Y24499D01*
X462633D01*
X462683Y24505D01*
X462744Y24510D01*
X462816Y24516D01*
X462893Y24527D01*
X462977Y24544D01*
X463149Y24582D01*
X463238Y24610D01*
X463326Y24644D01*
X463410Y24682D01*
X463487Y24727D01*
X463559Y24777D01*
X463626Y24838D01*
X463632Y24843D01*
X463643Y24854D01*
X463654Y24877D01*
X463676Y24904D01*
X463698Y24943D01*
X463726Y24993D01*
X463759Y25054D01*
X463787Y25126D01*
X463815Y25210D01*
X463848Y25304D01*
X463876Y25409D01*
X463898Y25526D01*
X463920Y25659D01*
X463937Y25804D01*
X463942Y25964D01*
X463948Y26136D01*
Y29095D01*
X464625D01*
Y26136D01*
D02*
G37*
G36*
X467317Y29106D02*
X467378Y29100D01*
X467450Y29089D01*
X467533Y29078D01*
X467617Y29061D01*
X467711Y29039D01*
X467805Y29011D01*
X467905Y28978D01*
X468000Y28939D01*
X468099Y28889D01*
X468194Y28834D01*
X468283Y28773D01*
X468366Y28701D01*
X468371Y28695D01*
X468382Y28684D01*
X468405Y28656D01*
X468432Y28628D01*
X468466Y28590D01*
X468504Y28540D01*
X468543Y28484D01*
X468582Y28418D01*
X468621Y28351D01*
X468660Y28273D01*
X468699Y28190D01*
X468732Y28101D01*
X468760Y28001D01*
X468782Y27901D01*
X468793Y27796D01*
X468799Y27685D01*
Y27679D01*
Y27674D01*
Y27657D01*
Y27635D01*
X468793Y27574D01*
X468782Y27496D01*
X468765Y27402D01*
X468743Y27302D01*
X468715Y27191D01*
X468671Y27080D01*
Y27074D01*
X468666Y27069D01*
X468660Y27052D01*
X468649Y27030D01*
X468615Y26969D01*
X468571Y26891D01*
X468510Y26797D01*
X468438Y26691D01*
X468355Y26581D01*
X468249Y26458D01*
X468244Y26453D01*
X468238Y26442D01*
X468216Y26425D01*
X468194Y26397D01*
X468160Y26364D01*
X468122Y26325D01*
X468077Y26275D01*
X468022Y26225D01*
X467955Y26164D01*
X467883Y26098D01*
X467805Y26020D01*
X467716Y25942D01*
X467622Y25853D01*
X467517Y25765D01*
X467400Y25665D01*
X467278Y25559D01*
X467272Y25554D01*
X467256Y25537D01*
X467222Y25515D01*
X467189Y25482D01*
X467139Y25443D01*
X467089Y25398D01*
X466973Y25298D01*
X466851Y25193D01*
X466734Y25082D01*
X466679Y25032D01*
X466629Y24988D01*
X466584Y24943D01*
X466551Y24910D01*
X466545Y24904D01*
X466523Y24882D01*
X466495Y24849D01*
X466457Y24804D01*
X466412Y24755D01*
X466368Y24699D01*
X466279Y24577D01*
X468804D01*
Y23972D01*
X465413D01*
Y23983D01*
Y24011D01*
Y24055D01*
X465419Y24111D01*
X465424Y24177D01*
X465441Y24250D01*
X465458Y24327D01*
X465485Y24405D01*
Y24410D01*
X465491Y24421D01*
X465496Y24438D01*
X465508Y24466D01*
X465524Y24494D01*
X465541Y24532D01*
X465585Y24621D01*
X465641Y24727D01*
X465713Y24843D01*
X465796Y24965D01*
X465896Y25087D01*
X465902Y25093D01*
X465907Y25104D01*
X465924Y25121D01*
X465951Y25149D01*
X465979Y25176D01*
X466018Y25215D01*
X466057Y25260D01*
X466107Y25310D01*
X466162Y25365D01*
X466223Y25420D01*
X466290Y25487D01*
X466368Y25554D01*
X466445Y25626D01*
X466534Y25698D01*
X466623Y25776D01*
X466723Y25859D01*
X466734Y25864D01*
X466762Y25892D01*
X466801Y25926D01*
X466856Y25975D01*
X466923Y26031D01*
X467000Y26098D01*
X467089Y26170D01*
X467178Y26253D01*
X467367Y26425D01*
X467550Y26608D01*
X467639Y26697D01*
X467722Y26786D01*
X467794Y26869D01*
X467855Y26947D01*
X467861Y26952D01*
X467866Y26963D01*
X467883Y26986D01*
X467900Y27013D01*
X467927Y27052D01*
X467949Y27091D01*
X468005Y27191D01*
X468060Y27308D01*
X468111Y27435D01*
X468144Y27568D01*
X468149Y27635D01*
X468155Y27702D01*
Y27707D01*
Y27718D01*
Y27740D01*
X468149Y27763D01*
Y27796D01*
X468138Y27835D01*
X468122Y27918D01*
X468088Y28018D01*
X468038Y28123D01*
X468011Y28179D01*
X467972Y28229D01*
X467933Y28279D01*
X467883Y28329D01*
X467877Y28334D01*
X467872Y28340D01*
X467855Y28351D01*
X467833Y28368D01*
X467805Y28390D01*
X467772Y28412D01*
X467694Y28462D01*
X467589Y28506D01*
X467472Y28551D01*
X467334Y28578D01*
X467256Y28590D01*
X467134D01*
X467100Y28584D01*
X467062D01*
X467017Y28573D01*
X466917Y28556D01*
X466801Y28523D01*
X466679Y28473D01*
X466617Y28440D01*
X466557Y28406D01*
X466501Y28362D01*
X466445Y28312D01*
X466440Y28306D01*
X466434Y28301D01*
X466423Y28284D01*
X466401Y28262D01*
X466384Y28234D01*
X466362Y28201D01*
X466334Y28162D01*
X466312Y28118D01*
X466285Y28068D01*
X466262Y28012D01*
X466218Y27879D01*
X466185Y27735D01*
X466179Y27652D01*
X466174Y27563D01*
X465530Y27629D01*
Y27641D01*
X465535Y27663D01*
X465541Y27696D01*
X465546Y27746D01*
X465557Y27807D01*
X465574Y27879D01*
X465591Y27957D01*
X465619Y28040D01*
X465646Y28123D01*
X465680Y28218D01*
X465724Y28306D01*
X465768Y28395D01*
X465824Y28490D01*
X465885Y28573D01*
X465951Y28656D01*
X466029Y28728D01*
X466035Y28734D01*
X466051Y28745D01*
X466074Y28762D01*
X466107Y28789D01*
X466151Y28817D01*
X466207Y28850D01*
X466268Y28884D01*
X466340Y28923D01*
X466418Y28956D01*
X466506Y28989D01*
X466601Y29022D01*
X466706Y29050D01*
X466817Y29078D01*
X466934Y29095D01*
X467062Y29106D01*
X467195Y29111D01*
X467267D01*
X467317Y29106D01*
D02*
G37*
G36*
X90994Y37437D02*
Y37425D01*
Y37403D01*
Y37364D01*
Y37309D01*
X90988Y37242D01*
X90983Y37170D01*
X90977Y37087D01*
X90972Y36992D01*
X90950Y36798D01*
X90922Y36593D01*
X90877Y36393D01*
X90850Y36299D01*
X90816Y36210D01*
Y36204D01*
X90811Y36188D01*
X90800Y36165D01*
X90783Y36132D01*
X90761Y36093D01*
X90739Y36049D01*
X90672Y35949D01*
X90633Y35888D01*
X90589Y35833D01*
X90533Y35766D01*
X90478Y35705D01*
X90411Y35644D01*
X90345Y35583D01*
X90267Y35527D01*
X90184Y35472D01*
X90178Y35466D01*
X90162Y35461D01*
X90139Y35444D01*
X90101Y35427D01*
X90056Y35405D01*
X90001Y35383D01*
X89939Y35355D01*
X89862Y35333D01*
X89784Y35305D01*
X89695Y35278D01*
X89596Y35255D01*
X89490Y35233D01*
X89373Y35217D01*
X89251Y35200D01*
X89124Y35194D01*
X88990Y35189D01*
X88918D01*
X88868Y35194D01*
X88807D01*
X88741Y35200D01*
X88657Y35211D01*
X88574Y35222D01*
X88386Y35250D01*
X88186Y35294D01*
X87991Y35355D01*
X87897Y35388D01*
X87808Y35433D01*
X87803Y35438D01*
X87786Y35444D01*
X87764Y35461D01*
X87736Y35477D01*
X87697Y35505D01*
X87653Y35538D01*
X87609Y35572D01*
X87559Y35616D01*
X87448Y35716D01*
X87342Y35838D01*
X87242Y35982D01*
X87198Y36066D01*
X87159Y36149D01*
Y36154D01*
X87153Y36171D01*
X87142Y36199D01*
X87131Y36238D01*
X87115Y36282D01*
X87098Y36343D01*
X87081Y36410D01*
X87065Y36487D01*
X87042Y36576D01*
X87026Y36671D01*
X87009Y36776D01*
X86998Y36893D01*
X86981Y37015D01*
X86976Y37148D01*
X86965Y37287D01*
Y37437D01*
Y40395D01*
X87642D01*
Y37437D01*
Y37431D01*
Y37409D01*
Y37375D01*
Y37326D01*
X87647Y37270D01*
Y37209D01*
X87653Y37137D01*
X87659Y37065D01*
X87670Y36904D01*
X87692Y36743D01*
X87725Y36587D01*
X87742Y36515D01*
X87764Y36454D01*
Y36449D01*
X87770Y36443D01*
X87775Y36426D01*
X87786Y36404D01*
X87819Y36343D01*
X87864Y36277D01*
X87919Y36193D01*
X87991Y36116D01*
X88080Y36038D01*
X88186Y35966D01*
X88191D01*
X88202Y35960D01*
X88219Y35949D01*
X88241Y35938D01*
X88269Y35927D01*
X88308Y35916D01*
X88347Y35899D01*
X88391Y35882D01*
X88502Y35855D01*
X88630Y35827D01*
X88774Y35805D01*
X88929Y35799D01*
X89002D01*
X89052Y35805D01*
X89113Y35810D01*
X89185Y35816D01*
X89262Y35827D01*
X89346Y35844D01*
X89518Y35882D01*
X89607Y35910D01*
X89695Y35943D01*
X89779Y35982D01*
X89856Y36027D01*
X89928Y36077D01*
X89995Y36138D01*
X90001Y36143D01*
X90012Y36154D01*
X90023Y36177D01*
X90045Y36204D01*
X90067Y36243D01*
X90095Y36293D01*
X90128Y36354D01*
X90156Y36426D01*
X90184Y36510D01*
X90217Y36604D01*
X90245Y36709D01*
X90267Y36826D01*
X90289Y36959D01*
X90306Y37104D01*
X90311Y37264D01*
X90317Y37437D01*
Y40395D01*
X90994D01*
Y37437D01*
D02*
G37*
G36*
X94235Y35272D02*
X93608D01*
Y39274D01*
X93597Y39262D01*
X93569Y39235D01*
X93519Y39196D01*
X93447Y39140D01*
X93364Y39074D01*
X93259Y39002D01*
X93142Y38924D01*
X93009Y38841D01*
X93003D01*
X92992Y38829D01*
X92975Y38818D01*
X92948Y38807D01*
X92914Y38785D01*
X92875Y38769D01*
X92787Y38719D01*
X92687Y38669D01*
X92576Y38613D01*
X92459Y38563D01*
X92348Y38519D01*
Y39124D01*
X92354Y39129D01*
X92370Y39135D01*
X92398Y39151D01*
X92437Y39168D01*
X92481Y39190D01*
X92537Y39224D01*
X92598Y39257D01*
X92659Y39290D01*
X92803Y39379D01*
X92959Y39484D01*
X93120Y39595D01*
X93270Y39723D01*
X93275Y39729D01*
X93286Y39740D01*
X93308Y39756D01*
X93336Y39784D01*
X93364Y39817D01*
X93403Y39851D01*
X93486Y39945D01*
X93580Y40045D01*
X93675Y40161D01*
X93758Y40284D01*
X93830Y40411D01*
X94235D01*
Y35272D01*
D02*
G37*
G36*
X684370Y25730D02*
X683693D01*
Y28145D01*
X681035D01*
Y25730D01*
X680357D01*
Y30853D01*
X681035D01*
Y28749D01*
X683693D01*
Y30853D01*
X684370D01*
Y25730D01*
D02*
G37*
G36*
X687611D02*
X686984D01*
Y29732D01*
X686973Y29721D01*
X686945Y29693D01*
X686895Y29654D01*
X686823Y29599D01*
X686740Y29532D01*
X686634Y29460D01*
X686518Y29382D01*
X686385Y29299D01*
X686379D01*
X686368Y29288D01*
X686351Y29277D01*
X686324Y29266D01*
X686290Y29243D01*
X686251Y29227D01*
X686163Y29177D01*
X686063Y29127D01*
X685952Y29071D01*
X685835Y29021D01*
X685724Y28977D01*
Y29582D01*
X685730Y29588D01*
X685746Y29593D01*
X685774Y29610D01*
X685813Y29626D01*
X685857Y29649D01*
X685913Y29682D01*
X685974Y29715D01*
X686035Y29749D01*
X686179Y29837D01*
X686335Y29943D01*
X686496Y30054D01*
X686646Y30182D01*
X686651Y30187D01*
X686662Y30198D01*
X686684Y30215D01*
X686712Y30242D01*
X686740Y30276D01*
X686779Y30309D01*
X686862Y30403D01*
X686956Y30503D01*
X687051Y30620D01*
X687134Y30742D01*
X687206Y30870D01*
X687611D01*
Y25730D01*
D02*
G37*
G36*
X679630Y30248D02*
X677943D01*
Y25730D01*
X677266D01*
Y30248D01*
X675579D01*
Y30853D01*
X679630D01*
Y30248D01*
D02*
G37*
G36*
X673409Y30847D02*
X673536Y30842D01*
X673664Y30831D01*
X673786Y30820D01*
X673847Y30814D01*
X673897Y30803D01*
X673903D01*
X673914Y30797D01*
X673936D01*
X673958Y30792D01*
X673991Y30781D01*
X674030Y30775D01*
X674119Y30748D01*
X674219Y30714D01*
X674325Y30670D01*
X674430Y30620D01*
X674530Y30559D01*
X674535D01*
X674541Y30553D01*
X674574Y30525D01*
X674619Y30487D01*
X674680Y30431D01*
X674741Y30365D01*
X674813Y30276D01*
X674880Y30182D01*
X674941Y30065D01*
Y30059D01*
X674946Y30048D01*
X674957Y30032D01*
X674968Y30009D01*
X674979Y29982D01*
X674991Y29943D01*
X675024Y29860D01*
X675052Y29754D01*
X675079Y29638D01*
X675096Y29504D01*
X675102Y29366D01*
Y29360D01*
Y29338D01*
Y29305D01*
X675096Y29255D01*
X675090Y29199D01*
X675079Y29138D01*
X675068Y29066D01*
X675052Y28983D01*
X675029Y28899D01*
X675002Y28811D01*
X674968Y28722D01*
X674924Y28627D01*
X674880Y28533D01*
X674824Y28439D01*
X674757Y28350D01*
X674685Y28261D01*
X674680Y28256D01*
X674663Y28245D01*
X674641Y28222D01*
X674602Y28189D01*
X674558Y28156D01*
X674497Y28117D01*
X674424Y28078D01*
X674341Y28039D01*
X674241Y27995D01*
X674136Y27956D01*
X674008Y27917D01*
X673875Y27884D01*
X673720Y27856D01*
X673553Y27834D01*
X673376Y27817D01*
X673176Y27812D01*
X671866D01*
Y25730D01*
X671189D01*
Y30853D01*
X673298D01*
X673409Y30847D01*
D02*
G37*
%LPC*%
G36*
X227705Y53682D02*
X225547D01*
Y51565D01*
X227462D01*
X227511Y51573D01*
X227566D01*
X227698Y51579D01*
X227844Y51593D01*
X227996Y51614D01*
X228142Y51642D01*
X228274Y51683D01*
X228281D01*
X228288Y51691D01*
X228330Y51704D01*
X228385Y51732D01*
X228462Y51774D01*
X228538Y51829D01*
X228621Y51892D01*
X228704Y51975D01*
X228774Y52065D01*
X228781Y52079D01*
X228801Y52114D01*
X228829Y52162D01*
X228864Y52239D01*
X228892Y52322D01*
X228920Y52419D01*
X228940Y52530D01*
X228947Y52641D01*
Y52648D01*
Y52662D01*
Y52683D01*
X228940Y52718D01*
Y52752D01*
X228933Y52801D01*
X228906Y52905D01*
X228864Y53023D01*
X228808Y53148D01*
X228725Y53266D01*
X228670Y53328D01*
X228614Y53384D01*
X228607Y53391D01*
X228600Y53398D01*
X228579Y53412D01*
X228552Y53432D01*
X228517Y53453D01*
X228468Y53481D01*
X228420Y53509D01*
X228357Y53536D01*
X228288Y53564D01*
X228212Y53585D01*
X228128Y53613D01*
X228038Y53634D01*
X227934Y53654D01*
X227823Y53668D01*
X227705Y53682D01*
D02*
G37*
G36*
X247866Y52086D02*
X247810D01*
X247776Y52079D01*
X247727Y52072D01*
X247678Y52065D01*
X247547Y52038D01*
X247408Y51996D01*
X247248Y51933D01*
X247172Y51892D01*
X247095Y51843D01*
X247019Y51781D01*
X246950Y51718D01*
X246943Y51711D01*
X246936Y51704D01*
X246915Y51683D01*
X246894Y51656D01*
X246866Y51614D01*
X246832Y51573D01*
X246797Y51524D01*
X246762Y51461D01*
X246728Y51399D01*
X246693Y51323D01*
X246623Y51156D01*
X246575Y50969D01*
X246561Y50865D01*
X246547Y50754D01*
X249143D01*
Y50761D01*
Y50781D01*
X249136Y50809D01*
X249129Y50851D01*
X249122Y50899D01*
X249115Y50955D01*
X249087Y51080D01*
X249045Y51226D01*
X248997Y51371D01*
X248927Y51510D01*
X248844Y51628D01*
X248837Y51635D01*
X248830Y51649D01*
X248803Y51670D01*
X248775Y51697D01*
X248740Y51732D01*
X248692Y51774D01*
X248636Y51815D01*
X248581Y51857D01*
X248511Y51899D01*
X248435Y51940D01*
X248268Y52017D01*
X248178Y52044D01*
X248081Y52065D01*
X247977Y52079D01*
X247866Y52086D01*
D02*
G37*
G36*
X232931Y52079D02*
X232875D01*
X232834Y52072D01*
X232785Y52065D01*
X232723Y52058D01*
X232591Y52024D01*
X232431Y51968D01*
X232355Y51933D01*
X232272Y51892D01*
X232188Y51843D01*
X232105Y51781D01*
X232029Y51711D01*
X231952Y51635D01*
X231945Y51628D01*
X231938Y51614D01*
X231918Y51586D01*
X231890Y51552D01*
X231862Y51503D01*
X231827Y51448D01*
X231793Y51378D01*
X231758Y51302D01*
X231723Y51212D01*
X231689Y51114D01*
X231654Y51003D01*
X231626Y50885D01*
X231598Y50754D01*
X231577Y50615D01*
X231571Y50462D01*
X231564Y50302D01*
Y50296D01*
Y50261D01*
Y50219D01*
X231571Y50157D01*
X231577Y50080D01*
X231585Y49997D01*
X231598Y49900D01*
X231612Y49803D01*
X231661Y49581D01*
X231730Y49359D01*
X231772Y49255D01*
X231827Y49150D01*
X231883Y49053D01*
X231952Y48963D01*
X231959Y48956D01*
X231973Y48942D01*
X231994Y48921D01*
X232022Y48894D01*
X232063Y48859D01*
X232105Y48824D01*
X232160Y48783D01*
X232223Y48748D01*
X232362Y48665D01*
X232528Y48595D01*
X232618Y48568D01*
X232723Y48547D01*
X232820Y48533D01*
X232931Y48526D01*
X232986D01*
X233028Y48533D01*
X233077Y48540D01*
X233139Y48547D01*
X233271Y48581D01*
X233424Y48637D01*
X233507Y48672D01*
X233590Y48713D01*
X233666Y48762D01*
X233750Y48824D01*
X233826Y48894D01*
X233902Y48970D01*
X233909Y48977D01*
X233916Y48991D01*
X233937Y49019D01*
X233965Y49053D01*
X233993Y49102D01*
X234027Y49157D01*
X234062Y49227D01*
X234104Y49310D01*
X234138Y49393D01*
X234173Y49497D01*
X234208Y49608D01*
X234236Y49733D01*
X234263Y49865D01*
X234284Y50011D01*
X234291Y50164D01*
X234298Y50330D01*
Y50337D01*
Y50365D01*
Y50414D01*
X234291Y50469D01*
X234284Y50545D01*
X234277Y50629D01*
X234263Y50719D01*
X234249Y50816D01*
X234201Y51024D01*
X234173Y51135D01*
X234132Y51246D01*
X234083Y51350D01*
X234034Y51455D01*
X233972Y51545D01*
X233902Y51635D01*
X233895Y51642D01*
X233882Y51656D01*
X233861Y51677D01*
X233833Y51704D01*
X233791Y51739D01*
X233750Y51774D01*
X233694Y51815D01*
X233639Y51857D01*
X233493Y51940D01*
X233326Y52010D01*
X233236Y52038D01*
X233139Y52058D01*
X233035Y52072D01*
X232931Y52079D01*
D02*
G37*
G36*
X253876Y43553D02*
X253827D01*
X253785Y43546D01*
X253744Y43539D01*
X253688Y43532D01*
X253563Y43504D01*
X253418Y43455D01*
X253265Y43386D01*
X253189Y43344D01*
X253112Y43296D01*
X253036Y43233D01*
X252967Y43164D01*
X252960Y43157D01*
X252953Y43143D01*
X252932Y43122D01*
X252911Y43095D01*
X252883Y43060D01*
X252849Y43011D01*
X252814Y42956D01*
X252786Y42893D01*
X252751Y42831D01*
X252717Y42755D01*
X252654Y42581D01*
X252613Y42387D01*
X252606Y42276D01*
X252599Y42165D01*
Y42158D01*
Y42144D01*
Y42123D01*
Y42095D01*
X252606Y42061D01*
Y42019D01*
X252620Y41915D01*
X252640Y41797D01*
X252668Y41665D01*
X252710Y41526D01*
X252765Y41387D01*
Y41380D01*
X252772Y41374D01*
X252786Y41353D01*
X252800Y41325D01*
X252835Y41262D01*
X252890Y41179D01*
X252960Y41089D01*
X253043Y40999D01*
X253133Y40909D01*
X253244Y40825D01*
X253251D01*
X253258Y40818D01*
X253300Y40797D01*
X253362Y40763D01*
X253446Y40728D01*
X253543Y40693D01*
X253654Y40659D01*
X253779Y40638D01*
X253904Y40631D01*
X253952D01*
X253987Y40638D01*
X254035Y40645D01*
X254084Y40652D01*
X254202Y40679D01*
X254334Y40728D01*
X254410Y40763D01*
X254480Y40797D01*
X254556Y40846D01*
X254625Y40895D01*
X254695Y40957D01*
X254764Y41026D01*
X254771Y41033D01*
X254778Y41047D01*
X254799Y41068D01*
X254820Y41103D01*
X254847Y41144D01*
X254875Y41193D01*
X254910Y41249D01*
X254944Y41318D01*
X254979Y41387D01*
X255014Y41471D01*
X255042Y41561D01*
X255069Y41658D01*
X255090Y41762D01*
X255111Y41880D01*
X255118Y41998D01*
X255125Y42123D01*
Y42130D01*
Y42151D01*
Y42185D01*
X255118Y42234D01*
X255111Y42290D01*
X255104Y42352D01*
X255097Y42421D01*
X255083Y42498D01*
X255042Y42664D01*
X254979Y42838D01*
X254938Y42928D01*
X254889Y43011D01*
X254834Y43088D01*
X254771Y43164D01*
X254764Y43171D01*
X254757Y43178D01*
X254736Y43199D01*
X254709Y43226D01*
X254674Y43254D01*
X254632Y43289D01*
X254528Y43358D01*
X254396Y43428D01*
X254244Y43490D01*
X254070Y43539D01*
X253973Y43546D01*
X253876Y43553D01*
D02*
G37*
G36*
X248900D02*
X248851D01*
X248810Y43546D01*
X248768Y43539D01*
X248712Y43532D01*
X248587Y43504D01*
X248442Y43455D01*
X248289Y43386D01*
X248213Y43344D01*
X248136Y43296D01*
X248060Y43233D01*
X247991Y43164D01*
X247984Y43157D01*
X247977Y43143D01*
X247956Y43122D01*
X247935Y43095D01*
X247907Y43060D01*
X247873Y43011D01*
X247838Y42956D01*
X247810Y42893D01*
X247776Y42831D01*
X247741Y42755D01*
X247678Y42581D01*
X247637Y42387D01*
X247630Y42276D01*
X247623Y42165D01*
Y42158D01*
Y42144D01*
Y42123D01*
Y42095D01*
X247630Y42061D01*
Y42019D01*
X247644Y41915D01*
X247664Y41797D01*
X247692Y41665D01*
X247734Y41526D01*
X247789Y41387D01*
Y41380D01*
X247796Y41374D01*
X247810Y41353D01*
X247824Y41325D01*
X247859Y41262D01*
X247914Y41179D01*
X247984Y41089D01*
X248067Y40999D01*
X248157Y40909D01*
X248268Y40825D01*
X248275D01*
X248282Y40818D01*
X248324Y40797D01*
X248386Y40763D01*
X248469Y40728D01*
X248567Y40693D01*
X248678Y40659D01*
X248803Y40638D01*
X248927Y40631D01*
X248976D01*
X249011Y40638D01*
X249059Y40645D01*
X249108Y40652D01*
X249226Y40679D01*
X249358Y40728D01*
X249434Y40763D01*
X249504Y40797D01*
X249580Y40846D01*
X249649Y40895D01*
X249719Y40957D01*
X249788Y41026D01*
X249795Y41033D01*
X249802Y41047D01*
X249823Y41068D01*
X249844Y41103D01*
X249871Y41144D01*
X249899Y41193D01*
X249934Y41249D01*
X249969Y41318D01*
X250003Y41387D01*
X250038Y41471D01*
X250066Y41561D01*
X250094Y41658D01*
X250114Y41762D01*
X250135Y41880D01*
X250142Y41998D01*
X250149Y42123D01*
Y42130D01*
Y42151D01*
Y42185D01*
X250142Y42234D01*
X250135Y42290D01*
X250128Y42352D01*
X250121Y42421D01*
X250107Y42498D01*
X250066Y42664D01*
X250003Y42838D01*
X249962Y42928D01*
X249913Y43011D01*
X249857Y43088D01*
X249795Y43164D01*
X249788Y43171D01*
X249781Y43178D01*
X249760Y43199D01*
X249733Y43226D01*
X249698Y43254D01*
X249656Y43289D01*
X249552Y43358D01*
X249420Y43428D01*
X249268Y43490D01*
X249094Y43539D01*
X248997Y43546D01*
X248900Y43553D01*
D02*
G37*
G36*
X264209Y45232D02*
X262190Y42345D01*
X264209D01*
Y45232D01*
D02*
G37*
G36*
X227386Y45739D02*
X225547D01*
Y43448D01*
X227275D01*
X227330Y43455D01*
X227400D01*
X227476Y43462D01*
X227566Y43476D01*
X227656Y43490D01*
X227851Y43525D01*
X228045Y43580D01*
X228135Y43615D01*
X228219Y43657D01*
X228302Y43698D01*
X228371Y43754D01*
X228378Y43761D01*
X228385Y43768D01*
X228406Y43789D01*
X228427Y43809D01*
X228482Y43879D01*
X228545Y43976D01*
X228607Y44101D01*
X228663Y44247D01*
X228704Y44420D01*
X228711Y44510D01*
X228718Y44614D01*
Y44621D01*
Y44635D01*
Y44656D01*
Y44684D01*
X228704Y44760D01*
X228691Y44850D01*
X228670Y44961D01*
X228628Y45072D01*
X228579Y45191D01*
X228510Y45301D01*
X228503Y45315D01*
X228475Y45350D01*
X228427Y45399D01*
X228371Y45454D01*
X228288Y45517D01*
X228198Y45579D01*
X228094Y45635D01*
X227976Y45676D01*
X227969D01*
X227934Y45683D01*
X227878Y45697D01*
X227795Y45711D01*
X227747D01*
X227691Y45718D01*
X227622Y45725D01*
X227552Y45732D01*
X227469D01*
X227386Y45739D01*
D02*
G37*
G36*
X281670Y45864D02*
X281622D01*
X281580Y45857D01*
X281539Y45850D01*
X281483Y45843D01*
X281358Y45808D01*
X281219Y45753D01*
X281150Y45718D01*
X281074Y45669D01*
X281004Y45621D01*
X280935Y45558D01*
X280865Y45489D01*
X280803Y45406D01*
X280796Y45399D01*
X280789Y45378D01*
X280768Y45343D01*
X280740Y45288D01*
X280713Y45218D01*
X280678Y45135D01*
X280636Y45038D01*
X280602Y44913D01*
X280567Y44774D01*
X280525Y44621D01*
X280491Y44441D01*
X280463Y44247D01*
X280435Y44032D01*
X280421Y43789D01*
X280407Y43532D01*
X280400Y43247D01*
Y43240D01*
Y43226D01*
Y43206D01*
Y43178D01*
Y43143D01*
Y43095D01*
X280407Y42990D01*
X280414Y42866D01*
X280421Y42720D01*
X280428Y42560D01*
X280449Y42394D01*
X280491Y42040D01*
X280518Y41866D01*
X280553Y41693D01*
X280595Y41533D01*
X280650Y41387D01*
X280706Y41256D01*
X280768Y41144D01*
X280775Y41137D01*
X280782Y41124D01*
X280803Y41096D01*
X280838Y41061D01*
X280872Y41026D01*
X280914Y40985D01*
X281018Y40888D01*
X281150Y40791D01*
X281310Y40714D01*
X281393Y40679D01*
X281483Y40652D01*
X281580Y40638D01*
X281677Y40631D01*
X281698D01*
X281733Y40638D01*
X281768D01*
X281816Y40645D01*
X281872Y40659D01*
X281997Y40693D01*
X282066Y40721D01*
X282135Y40756D01*
X282212Y40797D01*
X282288Y40853D01*
X282365Y40909D01*
X282441Y40978D01*
X282517Y41061D01*
X282587Y41151D01*
X282593Y41158D01*
X282600Y41179D01*
X282621Y41207D01*
X282642Y41256D01*
X282677Y41318D01*
X282704Y41401D01*
X282739Y41498D01*
X282774Y41609D01*
X282809Y41741D01*
X282843Y41894D01*
X282878Y42061D01*
X282906Y42255D01*
X282927Y42470D01*
X282947Y42706D01*
X282954Y42963D01*
X282961Y43247D01*
Y43254D01*
Y43268D01*
Y43289D01*
Y43317D01*
Y43351D01*
Y43393D01*
X282954Y43504D01*
X282947Y43629D01*
X282941Y43775D01*
X282933Y43934D01*
X282913Y44101D01*
X282871Y44455D01*
X282836Y44628D01*
X282802Y44795D01*
X282760Y44954D01*
X282712Y45107D01*
X282656Y45232D01*
X282587Y45343D01*
X282580Y45350D01*
X282573Y45364D01*
X282552Y45392D01*
X282524Y45426D01*
X282482Y45461D01*
X282441Y45510D01*
X282392Y45558D01*
X282337Y45607D01*
X282205Y45697D01*
X282045Y45780D01*
X281962Y45815D01*
X281865Y45843D01*
X281775Y45857D01*
X281670Y45864D01*
D02*
G37*
G36*
X276694D02*
X276646D01*
X276604Y45857D01*
X276563Y45850D01*
X276507Y45843D01*
X276382Y45808D01*
X276243Y45753D01*
X276174Y45718D01*
X276098Y45669D01*
X276028Y45621D01*
X275959Y45558D01*
X275889Y45489D01*
X275827Y45406D01*
X275820Y45399D01*
X275813Y45378D01*
X275792Y45343D01*
X275764Y45288D01*
X275737Y45218D01*
X275702Y45135D01*
X275660Y45038D01*
X275626Y44913D01*
X275591Y44774D01*
X275549Y44621D01*
X275515Y44441D01*
X275487Y44247D01*
X275459Y44032D01*
X275445Y43789D01*
X275431Y43532D01*
X275425Y43247D01*
Y43240D01*
Y43226D01*
Y43206D01*
Y43178D01*
Y43143D01*
Y43095D01*
X275431Y42990D01*
X275438Y42866D01*
X275445Y42720D01*
X275452Y42560D01*
X275473Y42394D01*
X275515Y42040D01*
X275542Y41866D01*
X275577Y41693D01*
X275619Y41533D01*
X275674Y41387D01*
X275730Y41256D01*
X275792Y41144D01*
X275799Y41137D01*
X275806Y41124D01*
X275827Y41096D01*
X275862Y41061D01*
X275896Y41026D01*
X275938Y40985D01*
X276042Y40888D01*
X276174Y40791D01*
X276334Y40714D01*
X276417Y40679D01*
X276507Y40652D01*
X276604Y40638D01*
X276701Y40631D01*
X276722D01*
X276757Y40638D01*
X276792D01*
X276840Y40645D01*
X276896Y40659D01*
X277021Y40693D01*
X277090Y40721D01*
X277160Y40756D01*
X277236Y40797D01*
X277312Y40853D01*
X277389Y40909D01*
X277465Y40978D01*
X277541Y41061D01*
X277611Y41151D01*
X277618Y41158D01*
X277624Y41179D01*
X277645Y41207D01*
X277666Y41256D01*
X277701Y41318D01*
X277729Y41401D01*
X277763Y41498D01*
X277798Y41609D01*
X277833Y41741D01*
X277867Y41894D01*
X277902Y42061D01*
X277930Y42255D01*
X277951Y42470D01*
X277971Y42706D01*
X277978Y42963D01*
X277985Y43247D01*
Y43254D01*
Y43268D01*
Y43289D01*
Y43317D01*
Y43351D01*
Y43393D01*
X277978Y43504D01*
X277971Y43629D01*
X277964Y43775D01*
X277958Y43934D01*
X277937Y44101D01*
X277895Y44455D01*
X277860Y44628D01*
X277826Y44795D01*
X277784Y44954D01*
X277735Y45107D01*
X277680Y45232D01*
X277611Y45343D01*
X277604Y45350D01*
X277597Y45364D01*
X277576Y45392D01*
X277548Y45426D01*
X277506Y45461D01*
X277465Y45510D01*
X277416Y45558D01*
X277361Y45607D01*
X277229Y45697D01*
X277069Y45780D01*
X276986Y45815D01*
X276889Y45843D01*
X276799Y45857D01*
X276694Y45864D01*
D02*
G37*
G36*
X303323Y36310D02*
X303275D01*
X303240Y36303D01*
X303198Y36296D01*
X303143Y36282D01*
X303025Y36255D01*
X302886Y36192D01*
X302817Y36157D01*
X302740Y36109D01*
X302664Y36060D01*
X302588Y35991D01*
X302511Y35921D01*
X302435Y35838D01*
X302428Y35831D01*
X302421Y35817D01*
X302400Y35789D01*
X302373Y35748D01*
X302345Y35699D01*
X302317Y35644D01*
X302282Y35574D01*
X302248Y35491D01*
X302206Y35401D01*
X302171Y35297D01*
X302144Y35186D01*
X302116Y35061D01*
X302088Y34929D01*
X302067Y34790D01*
X302060Y34637D01*
X302053Y34471D01*
Y34464D01*
Y34429D01*
Y34388D01*
X302060Y34325D01*
X302067Y34249D01*
X302074Y34166D01*
X302081Y34068D01*
X302102Y33971D01*
X302144Y33756D01*
X302206Y33534D01*
X302248Y33430D01*
X302296Y33326D01*
X302352Y33229D01*
X302414Y33145D01*
X302421Y33138D01*
X302428Y33125D01*
X302449Y33104D01*
X302477Y33083D01*
X302511Y33048D01*
X302553Y33013D01*
X302657Y32937D01*
X302789Y32854D01*
X302935Y32792D01*
X303018Y32764D01*
X303101Y32743D01*
X303191Y32729D01*
X303289Y32722D01*
X303337D01*
X303379Y32729D01*
X303420Y32736D01*
X303476Y32743D01*
X303601Y32778D01*
X303740Y32826D01*
X303816Y32868D01*
X303892Y32909D01*
X303969Y32958D01*
X304045Y33013D01*
X304121Y33083D01*
X304191Y33159D01*
X304198Y33166D01*
X304205Y33180D01*
X304225Y33208D01*
X304246Y33243D01*
X304281Y33291D01*
X304309Y33347D01*
X304343Y33416D01*
X304378Y33499D01*
X304413Y33590D01*
X304448Y33687D01*
X304482Y33805D01*
X304510Y33930D01*
X304531Y34062D01*
X304552Y34207D01*
X304559Y34367D01*
X304566Y34533D01*
Y34540D01*
Y34575D01*
Y34617D01*
X304559Y34679D01*
X304552Y34756D01*
X304545Y34839D01*
X304538Y34929D01*
X304517Y35033D01*
X304475Y35248D01*
X304413Y35470D01*
X304371Y35581D01*
X304323Y35678D01*
X304260Y35776D01*
X304198Y35866D01*
X304191Y35873D01*
X304184Y35887D01*
X304163Y35908D01*
X304135Y35935D01*
X304100Y35970D01*
X304052Y36005D01*
X303948Y36088D01*
X303823Y36171D01*
X303677Y36241D01*
X303594Y36268D01*
X303504Y36289D01*
X303414Y36303D01*
X303323Y36310D01*
D02*
G37*
G36*
X298347D02*
X298299D01*
X298264Y36303D01*
X298222Y36296D01*
X298167Y36282D01*
X298049Y36255D01*
X297910Y36192D01*
X297841Y36157D01*
X297764Y36109D01*
X297688Y36060D01*
X297612Y35991D01*
X297535Y35921D01*
X297459Y35838D01*
X297452Y35831D01*
X297445Y35817D01*
X297424Y35789D01*
X297396Y35748D01*
X297369Y35699D01*
X297341Y35644D01*
X297306Y35574D01*
X297272Y35491D01*
X297230Y35401D01*
X297195Y35297D01*
X297167Y35186D01*
X297140Y35061D01*
X297112Y34929D01*
X297091Y34790D01*
X297084Y34637D01*
X297077Y34471D01*
Y34464D01*
Y34429D01*
Y34388D01*
X297084Y34325D01*
X297091Y34249D01*
X297098Y34166D01*
X297105Y34068D01*
X297126Y33971D01*
X297167Y33756D01*
X297230Y33534D01*
X297272Y33430D01*
X297320Y33326D01*
X297376Y33229D01*
X297438Y33145D01*
X297445Y33138D01*
X297452Y33125D01*
X297473Y33104D01*
X297501Y33083D01*
X297535Y33048D01*
X297577Y33013D01*
X297681Y32937D01*
X297813Y32854D01*
X297959Y32792D01*
X298042Y32764D01*
X298125Y32743D01*
X298215Y32729D01*
X298313Y32722D01*
X298361D01*
X298403Y32729D01*
X298444Y32736D01*
X298500Y32743D01*
X298625Y32778D01*
X298764Y32826D01*
X298840Y32868D01*
X298916Y32909D01*
X298993Y32958D01*
X299069Y33013D01*
X299145Y33083D01*
X299215Y33159D01*
X299222Y33166D01*
X299229Y33180D01*
X299250Y33208D01*
X299270Y33243D01*
X299305Y33291D01*
X299333Y33347D01*
X299367Y33416D01*
X299402Y33499D01*
X299437Y33590D01*
X299472Y33687D01*
X299506Y33805D01*
X299534Y33930D01*
X299555Y34062D01*
X299576Y34207D01*
X299583Y34367D01*
X299589Y34533D01*
Y34540D01*
Y34575D01*
Y34617D01*
X299583Y34679D01*
X299576Y34756D01*
X299569Y34839D01*
X299562Y34929D01*
X299541Y35033D01*
X299499Y35248D01*
X299437Y35470D01*
X299395Y35581D01*
X299347Y35678D01*
X299284Y35776D01*
X299222Y35866D01*
X299215Y35873D01*
X299208Y35887D01*
X299187Y35908D01*
X299159Y35935D01*
X299125Y35970D01*
X299076Y36005D01*
X298972Y36088D01*
X298847Y36171D01*
X298701Y36241D01*
X298618Y36268D01*
X298528Y36289D01*
X298438Y36303D01*
X298347Y36310D01*
D02*
G37*
G36*
X328002Y37920D02*
Y37913D01*
X327995Y37892D01*
X327988Y37858D01*
X327981Y37816D01*
X327967Y37754D01*
X327953Y37691D01*
X327933Y37615D01*
X327912Y37532D01*
X327891Y37441D01*
X327863Y37344D01*
X327801Y37136D01*
X327731Y36914D01*
X327655Y36685D01*
X326947Y34804D01*
X329133D01*
X328460Y36581D01*
Y36588D01*
X328446Y36615D01*
X328432Y36657D01*
X328411Y36720D01*
X328384Y36782D01*
X328356Y36865D01*
X328321Y36955D01*
X328286Y37053D01*
X328217Y37268D01*
X328141Y37490D01*
X328064Y37712D01*
X328002Y37920D01*
D02*
G37*
G36*
X316065Y37830D02*
X314226D01*
Y35540D01*
X315954D01*
X316010Y35547D01*
X316079D01*
X316155Y35554D01*
X316246Y35568D01*
X316336Y35581D01*
X316530Y35616D01*
X316724Y35672D01*
X316815Y35706D01*
X316898Y35748D01*
X316981Y35789D01*
X317051Y35845D01*
X317057Y35852D01*
X317064Y35859D01*
X317085Y35880D01*
X317106Y35901D01*
X317162Y35970D01*
X317224Y36067D01*
X317286Y36192D01*
X317342Y36338D01*
X317384Y36511D01*
X317391Y36601D01*
X317398Y36706D01*
Y36713D01*
Y36726D01*
Y36747D01*
Y36775D01*
X317384Y36851D01*
X317370Y36942D01*
X317349Y37053D01*
X317307Y37164D01*
X317259Y37282D01*
X317189Y37393D01*
X317182Y37407D01*
X317155Y37441D01*
X317106Y37490D01*
X317051Y37545D01*
X316967Y37608D01*
X316877Y37670D01*
X316773Y37726D01*
X316655Y37767D01*
X316648D01*
X316613Y37774D01*
X316558Y37788D01*
X316475Y37802D01*
X316426D01*
X316371Y37809D01*
X316301Y37816D01*
X316232Y37823D01*
X316148D01*
X316065Y37830D01*
D02*
G37*
G36*
X234381Y37879D02*
X232223D01*
Y35762D01*
X234138D01*
X234187Y35769D01*
X234243D01*
X234374Y35776D01*
X234520Y35789D01*
X234673Y35810D01*
X234819Y35838D01*
X234950Y35880D01*
X234957D01*
X234964Y35887D01*
X235006Y35901D01*
X235061Y35928D01*
X235138Y35970D01*
X235214Y36026D01*
X235297Y36088D01*
X235381Y36171D01*
X235450Y36261D01*
X235457Y36275D01*
X235478Y36310D01*
X235506Y36359D01*
X235540Y36435D01*
X235568Y36518D01*
X235596Y36615D01*
X235617Y36726D01*
X235624Y36838D01*
Y36844D01*
Y36858D01*
Y36879D01*
X235617Y36914D01*
Y36948D01*
X235610Y36997D01*
X235582Y37101D01*
X235540Y37219D01*
X235485Y37344D01*
X235402Y37462D01*
X235346Y37525D01*
X235290Y37580D01*
X235283Y37587D01*
X235277Y37594D01*
X235256Y37608D01*
X235228Y37629D01*
X235193Y37650D01*
X235145Y37677D01*
X235096Y37705D01*
X235034Y37733D01*
X234964Y37760D01*
X234888Y37781D01*
X234805Y37809D01*
X234714Y37830D01*
X234610Y37851D01*
X234499Y37865D01*
X234381Y37879D01*
D02*
G37*
G36*
X227587Y37920D02*
Y37913D01*
X227580Y37892D01*
X227573Y37858D01*
X227566Y37816D01*
X227552Y37754D01*
X227538Y37691D01*
X227518Y37615D01*
X227497Y37532D01*
X227476Y37441D01*
X227448Y37344D01*
X227386Y37136D01*
X227316Y36914D01*
X227240Y36685D01*
X226532Y34804D01*
X228718D01*
X228045Y36581D01*
Y36588D01*
X228031Y36615D01*
X228017Y36657D01*
X227996Y36720D01*
X227969Y36782D01*
X227941Y36865D01*
X227906Y36955D01*
X227872Y37053D01*
X227802Y37268D01*
X227726Y37490D01*
X227649Y37712D01*
X227587Y37920D01*
D02*
G37*
G36*
X671068Y71148D02*
X669597D01*
Y69317D01*
X670979D01*
X671023Y69322D01*
X671079D01*
X671140Y69328D01*
X671212Y69339D01*
X671284Y69350D01*
X671440Y69378D01*
X671595Y69422D01*
X671667Y69450D01*
X671734Y69483D01*
X671800Y69516D01*
X671856Y69561D01*
X671861Y69566D01*
X671867Y69572D01*
X671883Y69589D01*
X671900Y69605D01*
X671945Y69661D01*
X671994Y69738D01*
X672044Y69838D01*
X672089Y69955D01*
X672122Y70094D01*
X672128Y70166D01*
X672133Y70249D01*
Y70254D01*
Y70266D01*
Y70282D01*
Y70304D01*
X672122Y70366D01*
X672111Y70438D01*
X672094Y70526D01*
X672061Y70615D01*
X672022Y70710D01*
X671967Y70798D01*
X671961Y70810D01*
X671939Y70837D01*
X671900Y70876D01*
X671856Y70920D01*
X671789Y70970D01*
X671717Y71020D01*
X671634Y71065D01*
X671539Y71098D01*
X671534D01*
X671506Y71104D01*
X671462Y71115D01*
X671395Y71126D01*
X671356D01*
X671312Y71131D01*
X671256Y71137D01*
X671201Y71143D01*
X671134D01*
X671068Y71148D01*
D02*
G37*
G36*
X673337Y30248D02*
X671866D01*
Y28417D01*
X673248D01*
X673292Y28422D01*
X673348D01*
X673409Y28428D01*
X673481Y28439D01*
X673553Y28450D01*
X673708Y28478D01*
X673864Y28522D01*
X673936Y28550D01*
X674003Y28583D01*
X674069Y28616D01*
X674125Y28661D01*
X674130Y28666D01*
X674136Y28672D01*
X674153Y28688D01*
X674169Y28705D01*
X674214Y28761D01*
X674263Y28838D01*
X674313Y28938D01*
X674358Y29055D01*
X674391Y29193D01*
X674397Y29266D01*
X674402Y29349D01*
Y29355D01*
Y29366D01*
Y29382D01*
Y29405D01*
X674391Y29465D01*
X674380Y29538D01*
X674363Y29626D01*
X674330Y29715D01*
X674291Y29810D01*
X674236Y29898D01*
X674230Y29910D01*
X674208Y29937D01*
X674169Y29976D01*
X674125Y30020D01*
X674058Y30070D01*
X673986Y30120D01*
X673903Y30165D01*
X673808Y30198D01*
X673803D01*
X673775Y30204D01*
X673731Y30215D01*
X673664Y30226D01*
X673625D01*
X673581Y30231D01*
X673525Y30237D01*
X673470Y30242D01*
X673403D01*
X673337Y30248D01*
D02*
G37*
%LPD*%
D10*
X390660Y43552D02*
G03*
X390660Y43552I-447J0D01*
G01*
X17903Y19851D02*
G03*
X17903Y19851I-447J0D01*
G01*
D11*
X680770Y58524D02*
G03*
X680770Y58524I-5590J0D01*
G01*
X681270Y16500D02*
G03*
X681270Y16500I-5590J0D01*
G01*
D12*
X446152Y16151D02*
X453882Y36748D01*
X391850Y36529D02*
X446152Y16151D01*
X391850Y36529D02*
X399579Y57127D01*
X15579Y36237D02*
X23309Y15639D01*
X77611Y36018D01*
X69881Y56615D02*
X77611Y36018D01*
D13*
X462312Y57845D02*
G03*
X470360Y61500I2196J5852D01*
G01*
X479756Y75000D02*
G03*
X473905Y70946I0J-6250D01*
G01*
X417660Y74602D02*
G03*
X415464Y75000I-2196J-5852D01*
G01*
X56211D02*
G03*
X54015Y74602I0J-6250D01*
G01*
X4054Y55852D02*
G03*
X0Y50001I2196J-5852D01*
G01*
Y0D02*
X707492D01*
Y75000D01*
X470360Y61500D02*
X473905Y70946D01*
X417660Y74602D02*
X462312Y57845D01*
X479756Y75000D02*
X707492D01*
X56211D02*
X415464D01*
X4054Y55852D02*
X54015Y74602D01*
X0Y0D02*
Y50001D01*
M02*
