G04*
G04 #@! TF.GenerationSoftware,Altium Limited,Altium Designer,22.7.1 (60)*
G04*
G04 Layer_Physical_Order=1*
G04 Layer_Color=255*
%FSLAX25Y25*%
%MOIN*%
G70*
G04*
G04 #@! TF.SameCoordinates,E8483943-05C6-4080-870F-1A5D9DAB6378*
G04*
G04*
G04 #@! TF.FilePolarity,Positive*
G04*
G01*
G75*
%ADD13C,0.00050*%
%ADD17C,0.02000*%
%ADD18C,0.12598*%
%ADD19C,0.07000*%
%ADD20C,0.43307*%
D13*
X462312Y57845D02*
G03*
X470360Y61500I2196J5852D01*
G01*
X479756Y75000D02*
G03*
X473905Y70946I0J-6250D01*
G01*
X417660Y74602D02*
G03*
X415464Y75000I-2196J-5852D01*
G01*
X56211D02*
G03*
X54015Y74602I0J-6250D01*
G01*
X4054Y55852D02*
G03*
X0Y50001I2196J-5852D01*
G01*
Y0D02*
X707492D01*
Y75000D01*
X470360Y61500D02*
X473905Y70946D01*
X417660Y74602D02*
X462312Y57845D01*
X479756Y75000D02*
X707492D01*
X56211D02*
X415464D01*
X4054Y55852D02*
X54015Y74602D01*
X0Y0D02*
Y50001D01*
D17*
X676000Y16180D02*
G03*
X675679Y16500I-320J0D01*
G01*
X674800Y6500D02*
G03*
X676000Y7700I0J1200D01*
G01*
X404023Y13023D02*
G03*
X410546Y6500I6523J0D01*
G01*
X399400Y8400D02*
G03*
X399406Y8400I0J4623D01*
G01*
X67310Y16843D02*
G03*
X75753Y8400I8443J0D01*
G01*
X427700Y58701D02*
G03*
X421701Y64700I-5999J0D01*
G01*
X676100Y65100D02*
G03*
X671500Y69700I-4600J0D01*
G01*
X630200D02*
G03*
X620200Y59700I0J-10000D01*
G01*
X614200Y52800D02*
G03*
X620200Y58800I0J6000D01*
G01*
X609922Y52644D02*
G03*
X610300Y52800I0J534D01*
G01*
X675179Y58524D02*
G03*
X676100Y59444I0J920D01*
G01*
X399406Y8400D02*
G03*
X404023Y13023I-6J4623D01*
G01*
X676000Y7700D02*
Y16180D01*
X410546Y6500D02*
X674800D01*
X404023Y13023D02*
Y40506D01*
X81025Y8400D02*
X399400D01*
X67310Y16843D02*
Y40697D01*
X75753Y8400D02*
X81025D01*
X41800Y62200D02*
X44300Y64700D01*
X421701D01*
X41800Y46000D02*
Y62200D01*
X48585Y34627D02*
Y39215D01*
X41800Y46000D02*
X48585Y39215D01*
X81025Y8400D02*
X81025Y8400D01*
X47629Y34627D02*
X48585Y33670D01*
X427700Y52644D02*
X609922D01*
X427700D02*
Y58701D01*
Y38431D02*
Y52644D01*
X676100Y59444D02*
Y65100D01*
X630200Y69700D02*
X671500D01*
X620200Y58800D02*
Y59700D01*
X610300Y52800D02*
X614200D01*
X422748Y33479D02*
X427700Y38431D01*
D18*
X439252Y41121D02*
D03*
X415293Y50112D02*
D03*
X32072Y41257D02*
D03*
X56030Y50248D02*
D03*
D19*
X441473Y26452D02*
D03*
X422748Y33479D02*
D03*
X404023Y40506D02*
D03*
X29860Y26643D02*
D03*
X48585Y33670D02*
D03*
X67310Y40697D02*
D03*
X675179Y58524D02*
D03*
X675679Y16500D02*
D03*
D20*
X645161Y37500D02*
D03*
X164847D02*
D03*
M02*
