G04*
G04 #@! TF.GenerationSoftware,Altium Limited,Altium Designer,22.7.1 (60)*
G04*
G04 Layer_Color=2752767*
%FSLAX25Y25*%
%MOIN*%
G70*
G04*
G04 #@! TF.SameCoordinates,E8483943-05C6-4080-870F-1A5D9DAB6378*
G04*
G04*
G04 #@! TF.FilePolarity,Positive*
G04*
G01*
G75*
%ADD13C,0.00050*%
%ADD21C,0.00200*%
D13*
X462312Y57845D02*
G03*
X470360Y61500I2196J5852D01*
G01*
X479756Y75000D02*
G03*
X473905Y70946I0J-6250D01*
G01*
X417660Y74602D02*
G03*
X415464Y75000I-2196J-5852D01*
G01*
X56211D02*
G03*
X54015Y74602I0J-6250D01*
G01*
X4054Y55852D02*
G03*
X0Y50001I2196J-5852D01*
G01*
Y0D02*
X707492D01*
Y75000D01*
X470360Y61500D02*
X473905Y70946D01*
X417660Y74602D02*
X462312Y57845D01*
X479756Y75000D02*
X707492D01*
X56211D02*
X415464D01*
X4054Y55852D02*
X54015Y74602D01*
X0Y0D02*
Y50001D01*
D21*
X438852Y40721D02*
Y40321D01*
X439652D01*
Y40721D01*
X440052D01*
Y41521D01*
X439652D01*
Y41921D01*
X438852D01*
Y41521D01*
X438452D01*
Y40721D01*
X438852D01*
X414893Y49712D02*
Y49312D01*
X415693D01*
Y49712D01*
X416093D01*
Y50512D01*
X415693D01*
Y50912D01*
X414893D01*
Y50512D01*
X414493D01*
Y49712D01*
X414893D01*
X440673Y25652D02*
X441073Y26452D01*
X440673Y27252D01*
X441473Y26852D01*
X442273Y27252D01*
X441873Y26452D01*
X442273Y25652D01*
X441473Y26052D01*
X440673Y25652D01*
X421948Y32679D02*
X422348Y33479D01*
X421948Y34279D01*
X422748Y33879D01*
X423548Y34279D01*
X423148Y33479D01*
X423548Y32679D01*
X422748Y33079D01*
X421948Y32679D01*
X403223Y39706D02*
X403623Y40506D01*
X403223Y41306D01*
X404023Y40906D01*
X404823Y41306D01*
X404423Y40506D01*
X404823Y39706D01*
X404023Y40106D01*
X403223Y39706D01*
X29061Y25843D02*
X29460Y26643D01*
X29061Y27443D01*
X29860Y27043D01*
X30661Y27443D01*
X30261Y26643D01*
X30661Y25843D01*
X29860Y26243D01*
X29061Y25843D01*
X47785Y32870D02*
X48185Y33670D01*
X47785Y34470D01*
X48585Y34070D01*
X49385Y34470D01*
X48985Y33670D01*
X49385Y32870D01*
X48585Y33270D01*
X47785Y32870D01*
X66510Y39897D02*
X66910Y40697D01*
X66510Y41497D01*
X67310Y41097D01*
X68110Y41497D01*
X67710Y40697D01*
X68110Y39897D01*
X67310Y40297D01*
X66510Y39897D01*
X31672Y40857D02*
Y40457D01*
X32471D01*
Y40857D01*
X32871D01*
Y41657D01*
X32471D01*
Y42057D01*
X31672D01*
Y41657D01*
X31271D01*
Y40857D01*
X31672D01*
X55630Y49848D02*
Y49448D01*
X56431D01*
Y49848D01*
X56831D01*
Y50648D01*
X56431D01*
Y51048D01*
X55630D01*
Y50648D01*
X55230D01*
Y49848D01*
X55630D01*
X674379Y57724D02*
Y59324D01*
X675980D01*
Y57724D01*
X674379D01*
X674880Y15700D02*
Y17300D01*
X676479D01*
Y15700D01*
X674880D01*
X645161Y36700D02*
X645561Y37100D01*
X645961D01*
X645561Y37500D01*
X645961Y37900D01*
X645561D01*
X645161Y38300D01*
X644761Y37900D01*
X644361D01*
X644761Y37500D01*
X644361Y37100D01*
X644761D01*
X645161Y36700D01*
X164847D02*
X165246Y37100D01*
X165647D01*
X165246Y37500D01*
X165647Y37900D01*
X165246D01*
X164847Y38300D01*
X164446Y37900D01*
X164047D01*
X164446Y37500D01*
X164047Y37100D01*
X164446D01*
X164847Y36700D01*
M02*
